<svg width="1431" height="660" viewBox="0 0 1431 660" fill="none" xmlns="http://www.w3.org/2000/svg">
<g clip-path="url(#clip0_10301_129661)">
<mask id="mask0_10301_129661" style="mask-type:luminance" maskUnits="userSpaceOnUse" x="0" y="-1" width="1441" height="933">
<path d="M1440.91 -0.419922H0.914062V931.18H1440.91V-0.419922Z" fill="white"/>
</mask>
<g mask="url(#mask0_10301_129661)">
<path d="M1240 447.621H1239.74L1149.57 585.129L969.427 653.802H969.198L878.998 791.31L698.998 859.983H698.741L608.57 997.492L487.456 1043.65H491.113L609.541 998.365H609.77L699.97 860.825L879.998 792.507H880.255L970.427 654.999L1150.43 586.326H1150.68L1240.86 448.818L1421 380.145H1421.23L1480.57 289.573V286.791L1420 378.948L1240 447.621ZM1217.43 430.445H1217.2L1127 567.953L946.998 636.626H946.77L856.57 774.134L676.57 842.807H676.313L586.141 980.348L419.941 1043.68H423.57L587.113 981.35H587.341L677.141 844.004L857.141 775.331H857.37L947.57 637.823L1127.57 569.15H1127.83L1218 431.642L1398.14 362.968H1398.37L1480.26 238.076V235.326L1397.17 362.03L1217.43 430.445ZM1307.31 86.7554L1217.14 224.263L1037.14 292.937H1036.88L946.598 430.542L766.456 499.183H766.227L676.027 636.723L496.027 705.364H495.77L405.598 842.872L225.598 911.545H225.37L138.484 1043.94H140.284L226.313 912.774L406.455 844.263H406.684L496.884 706.755L676.884 638.082H677.141L767.313 500.573L947.313 431.9H947.57L1037.74 294.392L1217.74 225.719H1217.97L1308.57 87.6612L1480.63 22.061V20.6701L1307.6 86.6584L1307.31 86.7554ZM1329.88 103.932L1239.68 241.44L1059.68 310.113H1059.43L969.141 447.718L788.998 516.391H788.77L698.57 653.996L518.57 722.67H518.313L428.027 860.436L248.027 929.109H247.77L172.284 1043.94H174.113L248.855 929.95L428.998 861.277H429.227L519.427 723.769L699.427 655.096H699.684L789.97 517.556L970.113 448.883H970.341L1060.54 311.342L1240.54 242.701H1240.77L1330.97 105.161L1480.48 48.1652V46.7743L1330.11 103.835L1329.88 103.932ZM1442.6 602.435L1352.43 739.943L1172.28 808.681H1172.06L1081.86 946.189L901.855 1014.86H901.598L882.598 1043.97H884.427L902.827 1015.93L1082.83 947.256H1083.08L1173.26 809.748L1353.26 741.075H1353.51L1443.68 603.567L1480.48 589.561V588.17L1442.86 602.338L1442.6 602.435ZM1465.14 619.611L1374.97 757.119L1194.83 825.792H1194.6L1104.4 963.301L924.398 1031.97H924.141L916.427 1043.75H918.256L925.37 1032.88L1105.37 964.239H1105.63L1195.8 826.73L1375.94 758.057H1376.17L1466.34 620.549L1480.63 615.115V613.724L1465.43 619.514L1465.14 619.611ZM1285.14 482.006H1284.88L1194.71 619.514L1014.57 688.187H1014.34L924.141 825.695L744.141 894.369H743.913L653.713 1031.88L622.798 1043.65H626.427L654.684 1032.88H654.913L745.113 895.371L925.113 826.698H925.37L1015.54 689.158L1195.68 620.517H1195.91L1286.11 482.977L1466.11 414.336H1466.34L1480.63 392.598V389.817L1465.17 413.398L1285.14 482.006ZM1262.6 464.83H1262.34L1172.17 602.37L992.027 671.011H991.798L901.484 808.681L721.484 877.322H721.255L631.055 1014.83L555.055 1043.94H558.684L632.027 1015.99H632.255L722.455 878.486L902.455 809.813H902.713L992.884 672.305L1173.03 603.632H1173.26L1263.43 465.8L1443.57 397.127H1443.8L1480.6 341.037V338.255L1442.6 396.221L1262.6 464.83ZM1420 172.702L1329.88 310.21L1149.88 378.883H1149.66L1059.46 516.424L879.456 585.064H879.198L789.027 722.605L609.027 791.246H608.798L518.198 929.012L338.198 997.686H337.97L307.684 1043.85H309.484L339.17 998.559L519.17 929.886H519.427L609.598 792.507L789.741 723.834H789.97L880.17 586.326L1060.17 517.653H1060.43L1150.6 380.145L1330.6 311.472H1330.86L1421.03 173.964L1480.37 151.32V149.93L1420.28 172.605L1420 172.702ZM1465.14 207.022L1374.97 344.563L1194.83 413.204H1194.6L1104.4 550.873L924.398 619.514H924.141L833.97 757.022L653.97 825.695H653.713L563.541 963.203L383.541 1031.88H383.313L375.57 1043.65H377.141L384.255 1032.78L564.398 964.141H564.627L654.798 826.633L834.941 757.96H835.17L925.37 620.452L1105.37 551.779H1105.63L1195.8 414.271L1375.94 345.598H1376.17L1466.34 207.993L1480.63 202.559V201.168L1465.4 207.022H1465.14ZM1442.6 189.846L1352.43 327.354L1172.28 396.06H1172.06L1081.86 533.729L901.855 602.403H901.598L811.427 739.943L631.427 808.616H631.198L541.027 946.124L360.884 1014.8H360.655L341.655 1043.91H343.456L361.855 1015.86L541.855 947.192H542.113L632.284 809.684L812.427 741.01H812.655L902.855 603.341L1082.86 534.667H1083.11L1173.28 397.127L1353.28 328.486H1353.54L1443.8 190.849L1480.6 176.842V175.452L1442.86 189.781L1442.6 189.846ZM1352.43 121.108L1262.23 258.778L1082.23 327.419H1081.97L991.798 464.927L811.427 533.729H811.198L721.141 671.173L541.141 739.846H540.913L450.57 877.451L270.57 946.124H270.313L206.113 1043.94H207.941L271.427 947.127L451.427 878.486H451.655L541.97 740.752L721.97 672.078H722.227L812.398 534.57L992.656 465.8H992.884L1083.08 328.292L1263.08 259.619H1263.31L1353.51 122.111L1480.48 73.5901V72.2316L1352.66 121.011L1352.43 121.108ZM1285.03 69.3526H1284.77L1194.6 207.022L1014.46 275.696H1014.23L924.027 413.204L744.027 481.877H743.798L653.598 619.385L473.598 688.058H473.341L382.855 825.89L202.855 894.563H202.627L112.398 1032.17L81.484 1043.94H85.1126L113.341 1033.17H113.598L203.77 895.663L383.913 826.989H384.141L474.284 689.287L654.284 620.646H654.513L744.713 483.106L924.713 414.465H924.97L1015.14 276.925L1195.28 208.284H1195.51L1286 70.4848L1466 1.81165H1466.23L1480.51 -19.9257V-22.6429L1465.06 0.905914L1285.03 69.3526ZM1374.97 138.22L1284.77 275.728L1104.77 344.401H1104.51L1014.28 481.974L834.141 550.647H833.913L743.741 688.155L563.541 756.925H563.313L473.113 894.466L293.113 963.106H292.855L239.998 1043.94H241.798L294.027 964.336L474.027 895.663H474.284L564.456 758.154L744.456 689.481H744.713L834.884 551.973L1015.03 483.3H1015.26L1105.71 345.501L1285.71 276.828H1285.97L1376.17 139.093L1480.6 99.3062V97.9152L1375.2 138.22H1374.97ZM1420 585.226L1329.83 722.767L1149.83 791.407H1149.6L1059.31 929.012L879.313 997.686H879.056L848.57 1043.94H850.37L880.055 998.656L1060.06 929.983H1060.31L1150.71 792.507L1330.71 723.834H1330.97L1421.14 586.326L1480.48 563.683V562.292L1420.17 585.258L1420 585.226ZM1442.54 -16.4322L1262.54 52.241H1262.28L1172.06 189.878L991.913 258.552H991.684L901.484 396.06L721.484 464.733H721.255L631.055 602.273L451.055 670.914H450.798L360.398 808.681L180.398 877.322H180.17L89.8269 1014.99L13.8269 1044.1H17.4555L90.7983 1016.16H91.0555L181.227 878.648L361.227 809.975H361.455L451.627 672.467L631.627 603.793H631.855L722.341 465.8L902.341 397.127H902.598L992.77 259.619L1173.03 190.849H1173.26L1263.43 53.2761L1443.57 -15.3971H1443.8L1480.6 -71.5195V-74.3984L1442.54 -16.4322ZM1397.51 155.493L1307.31 293.001L1127.31 361.674H1127.06L1036.88 499.183L856.884 567.856H856.627L766.456 705.364L586.313 774.037H586.084L495.884 911.545L315.884 980.218H315.627L274.084 1043.55H275.913L316.855 981.124L496.855 912.451H497.113L587.284 774.91L767.284 706.269H767.513L857.713 568.729L1037.71 500.088H1037.94L1128.14 362.58L1308.14 293.907H1308.4L1398.57 156.399L1480.46 125.184V123.793L1397.6 155.364L1397.51 155.493ZM1352.43 946.221L1288.31 1043.94H1290.14L1353.63 947.127L1480.6 898.606V897.215L1352.66 945.995L1352.43 946.221ZM1374.97 963.397L1322.14 1043.94H1323.97L1376.17 964.336L1480.6 924.516V923.125L1375.2 963.301L1374.97 963.397ZM1307.31 911.836L1220.68 1043.94H1222.51L1308.57 912.774L1480.63 847.174V845.783L1307.6 911.739L1307.31 911.836ZM1397.51 980.606L1355.97 1043.94H1357.77L1398.71 981.512L1480.6 950.297V948.906L1397.74 980.509L1397.51 980.606ZM1285.03 894.563H1284.77L1194.6 1032.07L1163.68 1043.85H1167.31L1195.57 1033.07H1195.8L1286 895.565L1466 826.892H1466.23L1480.51 805.155V802.211L1465.06 825.792L1285.03 894.563ZM1465.03 1032.17L1457.31 1043.94H1459.11L1466.23 1033.07L1480.51 1027.67V1026.28L1465.31 1032.07L1465.03 1032.17ZM1442.48 1014.99L1423.48 1044.1H1425.31L1443.68 1016.06L1480.48 1002.02V1000.66L1442.86 1014.89L1442.48 1014.99ZM1397.51 568.05L1307.31 705.558L1127.31 774.231H1127.06L1036.88 911.739L856.884 980.412H856.627L814.856 1043.94H816.684L857.598 981.512L1037.6 912.839H1037.83L1128.03 775.298L1308.03 706.658H1308.28L1398.46 569.117L1480.34 537.902V536.544L1397.48 568.115L1397.51 568.05ZM1420 997.783L1389.71 1043.94H1391.54L1421.2 998.656L1480.54 976.013V974.654L1420.23 997.621L1420 997.783ZM1262.43 877.354H1262.17L1172 1014.89L1096 1044.01H1099.63L1172.97 1016.06H1173.2L1263.37 878.551L1443.51 809.878H1443.74L1480.6 753.69V750.909L1442.6 808.681L1262.43 877.354ZM1329.83 516.488L1239.63 653.996L1059.63 722.67H1059.37L969.141 860.436L788.998 929.109H788.77L713.398 1044.04H715.198L789.97 930.047L970.113 861.374H970.341L1060.54 723.866L1240.54 655.193H1240.77L1331.08 517.556L1480.6 460.56V459.169L1330.11 516.553L1329.83 516.488ZM1374.91 550.873L1284.71 688.381L1104.71 757.055H1104.46L1014.28 894.66L834.084 963.301H833.856L781.027 1043.85H782.855L835.055 964.239L1015.2 895.565H1015.43L1105.71 758.057L1285.71 689.384H1285.97L1376.14 551.876L1480.57 512.057V510.666L1375.17 550.873H1374.91ZM1352.43 533.729L1262.23 671.237L1082.23 739.911H1081.97L991.798 877.419L811.798 946.092H811.57L747.484 1043.81H749.284L812.77 946.998L992.913 878.357H993.141L1083.08 740.752L1263.08 672.111H1263.31L1353.51 534.603L1480.48 486.082V484.691L1352.66 533.729H1352.43ZM1307.31 499.344L1217.14 636.82L1037.14 705.461H1036.88L946.713 842.969L766.57 911.642H766.341L679.684 1043.75H681.513L767.541 912.58L947.541 843.907H947.798L1037.97 706.399L1217.97 637.726H1218.2L1308.57 500.218L1480.63 434.617V433.227L1307.6 499.183L1307.31 499.344ZM1240 860.178H1239.74L1149.57 997.686L1028.46 1043.85H1032.08L1150.51 998.559H1150.77L1240.94 861.019L1421.03 792.507H1421.26L1480.6 701.935V699.185L1420 791.504L1240 860.178ZM1217.43 843.001H1217.2L1127 980.542L960.827 1043.88H964.456L1127.97 981.544H1128.23L1218.4 844.036L1398.54 775.363H1398.77L1480.66 650.503V647.753L1397.57 774.457L1217.43 843.001ZM1329.94 929.012L1254.57 1043.94H1256.37L1331.14 929.95L1480.66 872.955V871.564L1330.17 928.948L1329.94 929.012ZM68.5698 379.886L248.57 311.213H248.798L338.998 173.705L518.998 105.032H519.255L609.598 -32.6705L789.741 -101.344H789.97L797.713 -113.215H795.884L788.77 -102.346L608.57 -33.6733H608.341L518.198 103.932L338.198 172.605H337.97L247.655 310.21L67.6555 378.883H67.3983L-22.8588 516.488L-37.1445 521.923V523.281L-21.6874 517.556L68.5698 379.886ZM23.3983 551.779L113.598 414.271L293.598 345.598H293.855L384.141 207.993L564.284 139.32H564.513L654.684 1.81165L834.827 -66.9586H835.055L865.341 -113.215H863.541L833.856 -67.929L653.856 0.744179H653.598L563.313 138.317L383.17 207.022H382.855L292.655 344.563L112.655 413.204H112.427L22.1983 550.873L-37.1445 573.484V574.875L23.1698 551.876L23.3983 551.779ZM180.998 672.208H181.227L271.427 534.603L451.427 465.8H451.655L541.855 328.292L721.855 259.619H722.113L812.284 122.111L992.656 53.3731H992.884L1083.08 -84.1026L1159.08 -113.215H1155.46L1082.11 -85.2347H1081.86L991.684 52.3703L811.427 121.011H811.198L721.141 258.778L541.141 327.419H540.913L450.57 464.894L270.57 533.568H270.313L179.998 671.173L-0.00167465 739.846H-0.230244L-37.1445 796.065V798.977L0.855469 740.752L180.998 672.208ZM158.455 654.999H158.684L248.855 517.556L428.998 448.883H429.227L519.427 311.342L699.427 242.701H699.684L789.856 105.161L969.998 36.5202H970.227L1060.54 -101.408L1091.43 -113.215H1087.8L1059.54 -102.443H1059.28L969.141 35.1616L788.998 103.835H788.77L698.57 241.44L518.57 310.113H518.313L428.141 447.621L248.141 516.294H247.884L157.484 653.996L-22.516 722.67H-22.7445L-37.0302 744.375V747.221L-21.5731 723.64L158.455 654.999ZM9.25547 -113.215H5.71261L-22.6588 -102.443L-22.8588 -102.346L-37.1445 -80.6091V-77.8596L-21.6874 -101.408L9.25547 -113.215ZM91.0555 603.341L181.227 465.8L361.227 397.127H361.455L451.627 259.619L631.627 190.946H631.855L722.055 53.4378L902.055 -15.2353H902.313L966.798 -113.215H964.998L901.484 -16.3998L721.484 52.2733H721.255L630.941 189.878L450.941 258.552H450.684L360.513 396.06L180.513 464.733H180.284L89.8269 602.435L-37.1445 650.826V652.217L90.7983 603.438L91.0555 603.341ZM68.5698 586.164L158.684 448.656L338.684 379.983H338.941L429.113 242.475L609.37 173.705H609.598L699.798 36.1967L879.798 -32.4764H880.055L932.998 -113.215H931.17L878.941 -33.5762L698.941 35.0646H698.684L608.398 172.702L428.398 241.343H428.141L337.97 378.851L157.97 447.524H157.741L67.284 585.226L-37.1445 625.046V626.437L68.2555 586.261L68.5698 586.164ZM45.9983 568.956L136.198 431.448L316.198 362.774H316.455L406.627 225.234L586.627 156.593H586.855L677.141 18.891L857.141 -49.7498H857.37L899.17 -113.215H897.341L856.398 -50.785L676.398 17.8882H676.141L585.855 155.493L405.713 224.166H405.484L315.284 361.674L135.284 430.348H135.055L44.7412 568.05L-37.1445 599.265V600.656L45.7126 569.053L45.9983 568.956ZM23.3983 964.336L113.598 826.828L293.598 758.154H293.855L384.027 620.646L564.17 551.973H564.398L654.57 414.465L834.713 345.792H834.941L925.255 207.993L1105.26 139.32H1105.51L1195.68 1.81165L1375.94 -66.9586H1376.17L1406.46 -113.215H1404.63L1374.97 -67.929L1194.83 0.711838H1194.6L1104.4 138.317L924.284 207.022H924.027L833.856 344.563L653.856 413.204H653.598L563.313 550.873L383.313 619.514H383.084L292.884 757.022L112.884 825.695H112.655L22.1983 963.397L-37.1445 986.041V987.399L23.1698 964.433L23.3983 964.336ZM0.855469 947.127L91.0555 809.619L271.055 740.946H271.313L361.484 603.438L541.484 534.765H541.741L631.913 397.224L812.055 328.583H812.284L902.855 190.849L1082.86 122.208H1083.11L1173.28 -15.3L1353.37 -84.1026H1353.63L1372.63 -113.215H1370.83L1352.43 -85.17L1172.28 -16.4969H1172.06L1081.86 121.108L901.855 189.781H901.598L811.427 327.386L631.427 396.06H631.198L540.77 533.729L360.627 602.403H360.398L270.198 739.911L90.084 808.681H89.8269L-0.344528 946.221L-37.1445 960.26V961.618L0.6269 947.224L0.855469 947.127ZM68.5698 792.507L248.57 723.834H248.798L338.998 586.326L518.998 517.653H519.255L609.427 380.145L789.57 311.472H789.798L879.998 173.964L1060 105.29H1060.26L1150.71 -32.6705L1330.71 -101.344H1330.97L1338.8 -113.215H1337.14L1330.03 -102.346L1150.03 -33.6733H1149.8L1059.31 103.932L879.313 172.605H879.056L788.77 310.21L608.77 378.883H608.541L518.341 516.424L338.341 585.064H338.113L247.655 722.767L67.6555 791.407H67.3983L-22.8588 929.012L-37.1445 934.447V935.838L-21.6874 929.95L68.5698 792.507ZM203.598 689.449H203.827L294.027 551.941L474.027 483.268H474.284L564.456 345.76L744.456 277.087H744.713L835.055 139.093L1015.2 70.4201H1015.43L1105.71 -67.0556L1226.74 -113.215H1223.11L1104.66 -67.929H1104.4L1014.28 69.5467L834.084 138.22H833.856L743.684 275.728L563.541 344.498H563.313L473.113 481.974L293.113 550.647H292.855L202.57 688.381L22.4269 756.925H22.1983L-37.1445 847.497V850.247L23.3983 757.928L203.598 689.449ZM68.5698 998.721L158.741 861.18L338.741 792.54H338.998L429.17 655.031L609.313 586.358H609.541L699.741 448.85L879.741 380.177H879.998L970.17 242.669L1150.17 173.996H1150.43L1240.6 36.4879L1420.74 -32.1853H1420.97L1474.08 -113.215H1472.28L1420 -33.5762L1240 35.0646H1239.74L1149.51 172.702L969.37 241.343H969.141L878.941 378.851L698.941 447.524H698.684L608.513 585.032L428.513 653.705H428.255L338.084 791.213L158.084 859.886H157.855L67.284 997.783L-37.1445 1037.6V1038.99L68.2555 998.785L68.5698 998.721ZM226.141 706.593H226.37L316.57 569.053L496.57 500.412H496.827L586.998 362.904L766.998 294.231H767.227L857.398 156.722L1037.4 88.0493H1037.63L1127.83 -49.4587L1294.28 -113.215H1290.66L1127.2 -50.882H1126.94L1036.77 86.7554L856.655 155.267H856.398L766.227 292.775L586.084 361.448H585.855L495.655 498.956L315.655 567.629H315.398L225.113 705.558L45.1126 774.231H44.8555L-37.1445 899.253V902.035L45.9412 775.298L226.141 706.593ZM113.655 620.549L203.827 483.009L383.97 414.368H384.198L474.284 276.731L654.284 208.09H654.513L744.713 70.5818L924.713 1.90868H924.97L1000.63 -113.215H998.798L924.027 0.776535L744.027 69.4497H743.798L653.484 207.022L473.484 275.696H473.227L382.855 413.333L202.855 481.974H202.627L112.398 619.611L-37.1445 676.607V677.998L113.341 620.646L113.655 620.549ZM45.9412 981.512L136.141 844.004L316.141 775.331H316.398L406.57 637.823L586.57 569.15H586.798L677.141 431.448L857.141 362.774H857.37L947.57 225.234L1127.57 156.593H1127.83L1218 19.0527L1398.14 -49.5881H1398.37L1440.28 -113.215H1438.46L1397.51 -50.785L1217.37 17.8882H1217.14L1126.94 155.493L946.941 224.166H946.713L856.513 361.674L676.513 430.348H676.255L586.084 567.856L405.713 636.723H405.484L315.284 774.231L135.284 842.904H135.055L44.7412 980.606L-37.1445 1011.82V1013.21L45.7126 981.609L45.9412 981.512ZM0.855469 534.603L91.0555 397.062L271.055 328.422H271.313L361.598 190.849L541.598 122.208H541.855L632.027 -15.3L812.284 -84.1026H812.513L831.427 -113.215H829.627L811.427 -85.17L631.427 -16.4969H631.198L540.77 121.108L360.627 189.781H360.398L270.198 327.289L90.1983 395.963H89.9412L-0.344528 533.729L-37.1445 547.703V549.094L0.6269 534.667L0.855469 534.603ZM45.9412 156.431L136.141 18.891L316.141 -49.7498H316.398L358.056 -113.215H356.255L315.284 -50.785L135.284 17.8882H135.055L44.7412 155.493L-37.1445 186.708V188.099L45.7126 156.528L45.9412 156.431ZM91.0555 190.849L181.227 53.2761L361.227 -15.3971H361.455L425.713 -113.215H423.913L360.398 -16.3998L180.398 52.2733H180.17L89.8269 189.878L-37.1445 238.27V239.661L90.7983 190.849H91.0555ZM113.598 208.058L203.77 70.4848L383.913 1.81165H384.141L459.513 -113.215H457.713L382.855 0.776535L202.855 69.4497H202.627L112.398 207.022L-37.1445 264.083V265.441L113.341 208.09L113.598 208.058ZM68.5698 173.608L158.684 36.0997L338.684 -32.5735H338.941L391.884 -113.215H390.055L337.855 -33.5762L157.855 35.0646H157.627L67.284 172.702L-37.1445 212.489V213.88L68.2555 173.705L68.5698 173.608ZM136.198 225.169L226.313 87.6612L406.455 18.988H406.684L493.341 -113.215H491.427L405.484 17.9853L225.484 86.6584H225.255L134.941 224.263L-37.1445 289.864V291.125L135.884 225.169H136.198ZM76.884 -113.215H73.2555L-0.00167465 -85.2347H-0.230244L-37.1445 -29.1123V-26.3304L0.855469 -84.1026L76.884 -113.215ZM212.17 -113.215H208.57L44.9983 -50.882H44.7412L-37.1445 74.1077V76.8572L45.9412 -49.8469L212.17 -113.215ZM144.513 -113.215H140.884L22.4269 -67.929H22.1983L-37.1445 22.6432V25.4251L23.3983 -67.0556L144.513 -113.215ZM158.455 242.604H158.684L248.855 104.838L428.998 36.1967H429.227L519.427 -101.408L550.341 -113.215H546.713L518.456 -102.443H518.198L428.027 35.1616L248.027 103.835H247.77L157.484 241.44L-22.516 310.113H-22.7445L-37.0302 331.85V334.6L-21.5731 311.019L158.455 242.604ZM23.3983 139.093L113.598 1.71459L293.598 -66.9586H293.855L324.255 -113.215H322.427L292.741 -67.929L112.741 0.744179H112.513L22.1983 138.317L-37.1445 160.928V162.319L23.1698 139.32L23.3983 139.093ZM226.084 294.036H226.313L316.513 156.528L496.513 87.8553H496.77L586.941 -49.6528L753.256 -113.215H749.627L586.084 -50.882H585.855L495.655 86.7554L315.541 155.267H315.284L225.113 293.001L45.1126 361.674H44.8555L-37.1445 486.632V489.414L45.9412 362.71L226.084 294.036ZM180.998 259.651H181.227L271.427 122.046L451.427 53.3731H451.655L541.97 -84.1026L617.998 -113.215H614.284L540.998 -85.2347H540.77L450.57 52.3703L270.57 121.011H270.313L179.998 258.778L-0.00167465 327.289H-0.230244L-37.1445 383.509V386.258L0.855469 328.325L180.998 259.651ZM203.541 276.828H203.77L293.97 139.093L473.97 70.4201H474.227L564.398 -67.1203L685.713 -113.215H681.998L563.541 -67.929H563.313L473.113 69.5467L293.113 138.22H292.855L202.57 275.825L22.5698 344.498H22.3412L-37.1445 435.07V437.852L23.3983 345.501L203.541 276.828ZM0.855469 122.046L91.0555 -15.4618L271.17 -84.1026H271.427L290.427 -113.215H288.57L270.17 -85.17L90.1698 -16.4969H89.9126L-0.344528 121.108L-37.1445 135.147V136.538L0.6269 122.143L0.855469 122.046ZM68.5698 -32.6705L248.57 -101.344H248.798L256.598 -113.215H254.798L247.655 -102.346L67.6555 -33.6733H67.3983L-22.8588 103.932L-37.1445 109.366V110.757L-21.6874 104.838L68.5698 -32.6705ZM136.141 637.726L226.313 500.218L406.455 431.544H406.684L496.884 294.036L676.884 225.363H677.141L767.427 87.6612L947.427 18.988H947.684L1034.43 -113.215H1032.63L946.598 17.9853L766.456 86.6584H766.227L676.027 224.166L496.027 292.84H495.77L405.484 430.542L225.484 499.183H225.255L134.941 636.82L-37.1445 702.388V703.779L135.884 637.823L136.141 637.726Z" fill="url(#paint0_linear_10301_129661)"/>
</g>
<g opacity="0.3" filter="url(#filter0_f_10301_129661)">
<circle cx="104" cy="287" r="173" fill="#FFE699"/>
</g>
</g>
<path d="M1439.73 118.99C1440.26 119.139 1440.81 118.828 1440.96 118.296C1441.11 117.765 1440.8 117.213 1440.27 117.064L1439.73 118.99ZM1326.41 231.616L1326.52 230.622L1326.41 231.616ZM1234.51 139.719L1234.44 138.722L1234.51 139.719ZM1155.63 218.601L1155.73 219.596L1155.63 218.601ZM963.16 218.601L962.453 217.894L963.16 218.601ZM830.245 351.516L831.244 351.468L830.245 351.516ZM950.934 472.205L951.013 473.202L950.934 472.205ZM1053.87 369.265L1054.25 370.191L1053.87 369.265ZM1194.68 369.265L1194.27 370.176L1194.68 369.265ZM1279.87 454.457L1279.67 455.437L1279.87 454.457ZM1364.87 369.265C1364.87 366.319 1362.49 363.931 1359.54 363.931C1356.6 363.931 1354.21 366.319 1354.21 369.265C1354.21 372.21 1356.6 374.598 1359.54 374.598C1362.49 374.598 1364.87 372.21 1364.87 369.265ZM1433.93 115.8C1433.38 115.737 1432.88 116.131 1432.82 116.68C1432.76 117.229 1433.15 117.724 1433.7 117.787L1433.93 115.8ZM1421.72 118.895C1422.24 118.723 1422.53 118.158 1422.36 117.633C1422.18 117.108 1421.62 116.822 1421.09 116.994L1421.72 118.895ZM1410 123.498C1409.59 123.862 1409.55 124.494 1409.91 124.909C1410.28 125.324 1410.91 125.366 1411.32 125.002L1410 123.498ZM1403.21 134.276C1403.53 133.824 1403.42 133.2 1402.97 132.883C1402.51 132.566 1401.89 132.675 1401.57 133.127L1403.21 134.276ZM1395.03 143.973C1394.78 144.461 1394.96 145.066 1395.45 145.324C1395.94 145.582 1396.54 145.396 1396.8 144.908L1395.03 143.973ZM1391.36 156.161C1391.58 155.658 1391.36 155.066 1390.86 154.839C1390.35 154.613 1389.76 154.838 1389.53 155.341L1391.36 156.161ZM1384.55 166.911C1384.33 167.42 1384.57 168.006 1385.08 168.219C1385.59 168.433 1386.18 168.193 1386.39 167.683L1384.55 166.911ZM1381.54 179.287C1381.76 178.778 1381.52 178.191 1381.01 177.976C1380.5 177.761 1379.92 178 1379.7 178.508L1381.54 179.287ZM1374.67 189.994C1374.44 190.496 1374.66 191.09 1375.16 191.321C1375.66 191.551 1376.26 191.332 1376.49 190.83L1374.67 189.994ZM1370.86 202.146C1371.12 201.661 1370.95 201.053 1370.46 200.789C1369.98 200.525 1369.37 200.705 1369.1 201.19L1370.86 202.146ZM1362.57 211.778C1362.25 212.228 1362.36 212.853 1362.81 213.173C1363.26 213.493 1363.88 213.388 1364.2 212.938L1362.57 211.778ZM1355.88 222.574C1356.28 222.199 1356.31 221.566 1355.93 221.161C1355.56 220.756 1354.92 220.731 1354.52 221.106L1355.88 222.574ZM1344.43 227.944C1343.93 228.172 1343.71 228.765 1343.93 229.268C1344.16 229.771 1344.75 229.994 1345.26 229.766L1344.43 227.944ZM1332.76 232.791C1333.31 232.761 1333.73 232.29 1333.7 231.739C1333.67 231.187 1333.2 230.764 1332.65 230.794L1332.76 232.791ZM1319.87 229.335C1319.34 229.182 1318.79 229.488 1318.63 230.018C1318.48 230.549 1318.79 231.103 1319.32 231.257L1319.87 229.335ZM1306.72 224.876C1307.16 225.21 1307.78 225.125 1308.12 224.685C1308.45 224.246 1308.37 223.619 1307.93 223.284L1306.72 224.876ZM1298.47 213.596C1298.13 213.156 1297.51 213.07 1297.07 213.404C1296.63 213.738 1296.54 214.365 1296.87 214.805L1298.47 213.596ZM1289.38 202.994C1289.64 203.479 1290.25 203.658 1290.74 203.394C1291.22 203.129 1291.4 202.522 1291.14 202.037L1289.38 202.994ZM1285.01 189.684C1284.78 189.182 1284.19 188.964 1283.68 189.196C1283.18 189.428 1282.96 190.022 1283.2 190.524L1285.01 189.684ZM1277.44 177.918C1277.68 178.42 1278.27 178.638 1278.77 178.406C1279.27 178.175 1279.49 177.58 1279.26 177.079L1277.44 177.918ZM1273.07 164.61C1272.8 164.125 1272.19 163.949 1271.71 164.214C1271.23 164.48 1271.05 165.088 1271.31 165.572L1273.07 164.61ZM1263.85 154.122C1264.2 154.552 1264.82 154.621 1265.26 154.276C1265.69 153.93 1265.76 153.301 1265.41 152.87L1263.85 154.122ZM1254.97 143.364C1254.5 143.075 1253.89 143.221 1253.6 143.691C1253.31 144.161 1253.45 144.777 1253.92 145.067L1254.97 143.364ZM1241.36 140.797C1241.91 140.856 1242.4 140.459 1242.46 139.91C1242.52 139.361 1242.12 138.868 1241.57 138.808L1241.36 140.797ZM1228.45 139.66C1227.91 139.79 1227.58 140.331 1227.71 140.868C1227.84 141.404 1228.38 141.733 1228.92 141.603L1228.45 139.66ZM1218.57 146.219C1219.03 145.907 1219.15 145.284 1218.83 144.829C1218.52 144.373 1217.9 144.257 1217.44 144.569L1218.57 146.219ZM1208.69 152.797C1208.35 153.226 1208.41 153.856 1208.84 154.204C1209.27 154.552 1209.9 154.487 1210.25 154.059L1208.69 152.797ZM1203.78 163.679C1204.06 163.2 1203.89 162.589 1203.41 162.315C1202.93 162.041 1202.32 162.207 1202.05 162.686L1203.78 163.679ZM1196.6 173.197C1196.36 173.694 1196.56 174.292 1197.06 174.532C1197.56 174.772 1198.16 174.564 1198.4 174.067L1196.6 173.197ZM1193.34 184.697C1193.58 184.199 1193.37 183.601 1192.87 183.361C1192.37 183.121 1191.78 183.33 1191.54 183.827L1193.34 184.697ZM1186.16 194.219C1185.88 194.698 1186.05 195.309 1186.53 195.583C1187.01 195.856 1187.62 195.689 1187.89 195.21L1186.16 194.219ZM1181.28 205.115C1181.62 204.684 1181.55 204.055 1181.12 203.709C1180.69 203.362 1180.06 203.43 1179.72 203.861L1181.28 205.115ZM1171.45 211.783C1171 212.102 1170.89 212.725 1171.21 213.177C1171.53 213.628 1172.15 213.736 1172.6 213.418L1171.45 211.783ZM1161.7 218.525C1162.23 218.383 1162.55 217.835 1162.41 217.301C1162.26 216.767 1161.72 216.45 1161.18 216.592L1161.7 218.525ZM1149.58 217.729C1149.03 217.694 1148.55 218.112 1148.52 218.664C1148.48 219.215 1148.9 219.69 1149.45 219.725L1149.58 217.729ZM1137.38 216.549C1137.88 216.794 1138.48 216.591 1138.72 216.096C1138.97 215.6 1138.77 215.001 1138.27 214.756L1137.38 216.549ZM1128.83 207.705C1128.45 207.308 1127.82 207.298 1127.42 207.682C1127.02 208.067 1127.01 208.7 1127.4 209.096L1128.83 207.705ZM1119.84 199.3C1120.13 199.766 1120.75 199.904 1121.22 199.608C1121.68 199.312 1121.82 198.695 1121.53 198.228L1119.84 199.3ZM1115.67 187.681C1115.42 187.186 1114.82 186.984 1114.33 187.23C1113.83 187.475 1113.63 188.075 1113.88 188.57L1115.67 187.681ZM1108.72 177.469C1108.95 177.974 1109.54 178.203 1110.04 177.979C1110.55 177.755 1110.78 177.165 1110.55 176.66L1108.72 177.469ZM1105.65 165.501C1105.43 164.996 1104.84 164.769 1104.33 164.993C1103.83 165.217 1103.6 165.808 1103.82 166.313L1105.65 165.501ZM1098.7 155.309C1098.94 155.804 1099.54 156.005 1100.04 155.758C1100.53 155.512 1100.73 154.911 1100.49 154.417L1098.7 155.309ZM1094.51 143.677C1094.22 143.21 1093.6 143.07 1093.13 143.365C1092.67 143.66 1092.53 144.278 1092.82 144.745L1094.51 143.677ZM1085.6 135.196C1085.98 135.6 1086.61 135.623 1087.01 135.247C1087.42 134.871 1087.44 134.238 1087.07 133.834L1085.6 135.196ZM1077.4 126.006C1076.92 125.731 1076.31 125.897 1076.03 126.376C1075.76 126.855 1075.92 127.466 1076.4 127.741L1077.4 126.006ZM1065.33 123.828C1065.88 123.916 1066.39 123.545 1066.48 123C1066.57 122.455 1066.19 121.941 1065.65 121.853L1065.33 123.828ZM1053.36 121.627C1052.81 121.676 1052.4 122.161 1052.45 122.711C1052.5 123.262 1052.99 123.668 1053.54 123.619L1053.36 121.627ZM1042.13 125.824C1042.66 125.661 1042.95 125.1 1042.79 124.573C1042.62 124.045 1042.06 123.75 1041.54 123.913L1042.13 125.824ZM1030.5 128.801C1030.02 129.081 1029.86 129.694 1030.14 130.17C1030.42 130.646 1031.04 130.804 1031.51 130.523L1030.5 128.801ZM1022.18 137.476C1022.59 137.104 1022.62 136.471 1022.25 136.063C1021.87 135.655 1021.24 135.625 1020.83 135.997L1022.18 137.476ZM1012.63 144.759C1012.28 145.187 1012.35 145.817 1012.77 146.165C1013.2 146.514 1013.83 146.449 1014.18 146.021L1012.63 144.759ZM1007.22 155.511C1007.53 155.052 1007.41 154.431 1006.95 154.124C1006.49 153.816 1005.87 153.939 1005.56 154.397L1007.22 155.511ZM999.199 164.471C998.913 164.944 999.066 165.559 999.539 165.844C1000.01 166.129 1000.63 165.977 1000.91 165.504L999.199 164.471ZM994.883 175.714C995.162 175.238 995.001 174.625 994.525 174.346C994.048 174.067 993.435 174.228 993.157 174.705L994.883 175.714ZM987.12 184.901C986.834 185.373 986.985 185.988 987.457 186.274C987.93 186.56 988.545 186.409 988.831 185.936L987.12 184.901ZM982.479 196.011C982.784 195.55 982.658 194.93 982.197 194.625C981.737 194.32 981.116 194.446 980.811 194.907L982.479 196.011ZM974.005 204.544C973.671 204.984 973.757 205.612 974.198 205.945C974.638 206.279 975.265 206.193 975.599 205.753L974.005 204.544ZM967.991 214.968C968.361 214.558 968.329 213.926 967.919 213.556C967.51 213.185 966.877 213.217 966.507 213.627L967.991 214.968ZM958.026 222.144C957.621 222.519 957.595 223.152 957.97 223.557C958.344 223.963 958.977 223.989 959.383 223.614L958.026 222.144ZM949.952 231.698C950.384 231.353 950.454 230.724 950.109 230.292C949.765 229.861 949.135 229.79 948.704 230.135L949.952 231.698ZM938.874 237.514C938.423 237.833 938.316 238.457 938.635 238.908C938.954 239.359 939.578 239.465 940.029 239.146L938.874 237.514ZM929.747 246.068C930.211 245.77 930.346 245.151 930.047 244.686C929.749 244.222 929.13 244.087 928.665 244.386L929.747 246.068ZM918.193 250.875C917.72 251.159 917.566 251.773 917.85 252.247C918.134 252.721 918.749 252.874 919.222 252.59L918.193 250.875ZM908.558 258.851C909.037 258.575 909.2 257.964 908.924 257.485C908.648 257.007 908.036 256.843 907.558 257.12L908.558 258.851ZM896.854 263.273C896.375 263.548 896.211 264.159 896.486 264.638C896.762 265.117 897.373 265.281 897.852 265.006L896.854 263.273ZM887.197 271.225C887.671 270.943 887.826 270.329 887.544 269.854C887.261 269.38 886.647 269.225 886.173 269.507L887.197 271.225ZM875.635 276.016C875.171 276.316 875.037 276.935 875.337 277.399C875.636 277.863 876.255 277.996 876.719 277.697L875.635 276.016ZM866.58 284.639C867.025 284.313 867.122 283.687 866.795 283.241C866.469 282.796 865.843 282.7 865.397 283.026L866.58 284.639ZM855.683 290.802C855.269 291.168 855.23 291.8 855.595 292.214C855.961 292.628 856.593 292.667 857.007 292.302L855.683 290.802ZM848.352 300.924C848.716 300.509 848.675 299.878 848.26 299.513C847.845 299.149 847.213 299.19 846.849 299.605L848.352 300.924ZM839.376 309.62C839.084 310.089 839.228 310.706 839.697 310.997C840.166 311.289 840.783 311.145 841.074 310.676L839.376 309.62ZM835.646 321.542C835.845 321.027 835.589 320.448 835.073 320.249C834.558 320.05 833.979 320.306 833.78 320.822L835.646 321.542ZM830.393 332.87C830.292 333.413 830.652 333.934 831.195 334.035C831.738 334.135 832.259 333.776 832.359 333.233L830.393 332.87ZM831.156 345.349C831.167 344.797 830.729 344.34 830.177 344.329C829.625 344.317 829.168 344.755 829.156 345.308L831.156 345.349ZM829.662 357.538C829.712 358.088 830.199 358.493 830.749 358.443C831.299 358.393 831.704 357.906 831.654 357.356L829.662 357.538ZM833.226 369.054C833.129 368.51 832.61 368.148 832.066 368.244C831.523 368.341 831.16 368.86 831.257 369.404L833.226 369.054ZM833.851 381.091C833.994 381.625 834.542 381.942 835.075 381.8C835.609 381.657 835.926 381.109 835.784 380.576L833.851 381.091ZM839.307 391.84C839.12 391.32 838.547 391.051 838.028 391.238C837.508 391.425 837.238 391.998 837.426 392.517L839.307 391.84ZM841.959 403.598C842.19 404.1 842.784 404.32 843.285 404.089C843.787 403.858 844.007 403.264 843.776 402.762L841.959 403.598ZM849.169 413.257C848.895 412.777 848.285 412.61 847.805 412.884C847.325 413.158 847.158 413.769 847.432 414.248L849.169 413.257ZM853.824 424.375C854.14 424.829 854.763 424.94 855.216 424.625C855.67 424.309 855.781 423.686 855.466 423.233L853.824 424.375ZM862.643 432.59C862.287 432.168 861.656 432.115 861.234 432.471C860.812 432.827 860.758 433.458 861.115 433.88L862.643 432.59ZM869.276 442.654C869.671 443.039 870.304 443.031 870.69 442.636C871.075 442.24 871.067 441.607 870.672 441.221L869.276 442.654ZM879.514 449.009C879.081 448.666 878.452 448.739 878.109 449.171C877.766 449.604 877.838 450.233 878.271 450.576L879.514 449.009ZM888.047 457.52C888.514 457.815 889.132 457.675 889.427 457.208C889.722 456.741 889.582 456.124 889.115 455.829L888.047 457.52ZM899.402 461.553C898.905 461.312 898.307 461.52 898.066 462.017C897.825 462.514 898.032 463.112 898.529 463.353L899.402 461.553ZM909.614 467.952C910.136 468.133 910.705 467.857 910.887 467.336C911.068 466.814 910.792 466.244 910.271 466.063L909.614 467.952ZM921.592 469.259C921.052 469.141 920.519 469.482 920.401 470.022C920.283 470.561 920.625 471.094 921.164 471.212L921.592 469.259ZM933.022 473.07C933.572 473.122 934.06 472.719 934.113 472.169C934.166 471.62 933.763 471.131 933.213 471.079L933.022 473.07ZM944.972 471.507C944.42 471.519 943.983 471.977 943.995 472.529C944.007 473.081 944.464 473.519 945.017 473.507L944.972 471.507ZM957.395 472.353C957.938 472.249 958.294 471.726 958.19 471.183C958.087 470.641 957.564 470.285 957.021 470.388L957.395 472.353ZM968.742 466.607C968.243 466.843 968.03 467.439 968.266 467.939C968.502 468.438 969.098 468.651 969.598 468.415L968.742 466.607ZM980.387 461.46C980.811 461.106 980.866 460.475 980.512 460.052C980.157 459.628 979.527 459.572 979.103 459.927L980.387 461.46ZM987.734 451.026C987.387 451.455 987.454 452.085 987.884 452.432C988.314 452.779 988.944 452.712 989.29 452.282L987.734 451.026ZM996.615 441.873C996.908 441.405 996.766 440.788 996.298 440.495C995.829 440.202 995.212 440.344 994.92 440.812L996.615 441.873ZM1001.21 429.943C1000.95 430.427 1001.13 431.035 1001.61 431.3C1002.1 431.564 1002.7 431.386 1002.97 430.901L1001.21 429.943ZM1008.93 419.767C1009.19 419.28 1009 418.674 1008.52 418.414C1008.03 418.154 1007.42 418.338 1007.16 418.826L1008.93 419.767ZM1013.27 407.743C1012.99 408.222 1013.15 408.833 1013.63 409.11C1014.11 409.386 1014.72 409.222 1015 408.744L1013.27 407.743ZM1021.64 398.113C1021.95 397.657 1021.84 397.035 1021.38 396.722C1020.93 396.41 1020.31 396.526 1019.99 396.982L1021.64 398.113ZM1027.79 386.915C1027.42 387.328 1027.46 387.96 1027.88 388.326C1028.29 388.692 1028.92 388.654 1029.29 388.241L1027.79 386.915ZM1038.25 379.628C1038.68 379.281 1038.75 378.652 1038.4 378.222C1038.05 377.792 1037.43 377.724 1037 378.07L1038.25 379.628ZM1047.68 371.04C1047.19 371.297 1047 371.901 1047.26 372.39C1047.51 372.879 1048.12 373.067 1048.61 372.81L1047.68 371.04ZM1059.88 367.965C1060.39 367.767 1060.65 367.188 1060.45 366.673C1060.26 366.157 1059.68 365.9 1059.16 366.098L1059.88 367.965ZM1070.61 361.967C1070.09 362.143 1069.81 362.709 1069.98 363.233C1070.16 363.757 1070.72 364.039 1071.25 363.863L1070.61 361.967ZM1082.79 360.315C1083.32 360.167 1083.63 359.616 1083.48 359.084C1083.33 358.551 1082.78 358.24 1082.25 358.388L1082.79 360.315ZM1094.08 355.484C1093.54 355.598 1093.2 356.129 1093.31 356.669C1093.43 357.21 1093.96 357.555 1094.5 357.441L1094.08 355.484ZM1106.37 355.367C1106.92 355.292 1107.3 354.788 1107.23 354.24C1107.15 353.693 1106.65 353.31 1106.1 353.385L1106.37 355.367ZM1118.25 352.215C1117.7 352.245 1117.28 352.717 1117.31 353.269C1117.34 353.82 1117.81 354.242 1118.36 354.212L1118.25 352.215ZM1130.39 354.062C1130.95 354.079 1131.41 353.645 1131.42 353.093C1131.44 352.541 1131.01 352.08 1130.46 352.063L1130.39 354.062ZM1142.63 352.965C1142.08 352.901 1141.59 353.293 1141.52 353.842C1141.46 354.39 1141.85 354.887 1142.4 354.952L1142.63 352.965ZM1154.29 356.857C1154.83 356.967 1155.36 356.617 1155.47 356.075C1155.58 355.534 1155.23 355.006 1154.69 354.897L1154.29 356.857ZM1166.54 357.774C1166.01 357.624 1165.45 357.933 1165.3 358.465C1165.15 358.996 1165.46 359.549 1165.99 359.699L1166.54 357.774ZM1177.48 363.37C1178 363.555 1178.57 363.284 1178.76 362.764C1178.94 362.243 1178.67 361.671 1178.15 361.486L1177.48 363.37ZM1189.5 365.91C1188.99 365.695 1188.41 365.933 1188.19 366.442C1187.98 366.951 1188.22 367.538 1188.73 367.752L1189.5 365.91ZM1199.7 372.973C1200.18 373.251 1200.79 373.089 1201.07 372.611C1201.35 372.134 1201.18 371.522 1200.71 371.244L1199.7 372.973ZM1210.88 378.63C1210.47 378.263 1209.84 378.3 1209.47 378.713C1209.11 379.126 1209.14 379.758 1209.56 380.125L1210.88 378.63ZM1217.95 389.004C1218.3 389.433 1218.93 389.501 1219.36 389.154C1219.79 388.807 1219.86 388.177 1219.51 387.748L1217.95 389.004ZM1226.77 397.93C1226.47 397.465 1225.85 397.33 1225.39 397.628C1224.92 397.926 1224.79 398.544 1225.09 399.009L1226.77 397.93ZM1231.44 409.602C1231.72 410.081 1232.33 410.247 1232.81 409.972C1233.29 409.697 1233.45 409.085 1233.18 408.606L1231.44 409.602ZM1239.36 419.347C1239.08 418.872 1238.47 418.714 1237.99 418.995C1237.52 419.276 1237.36 419.89 1237.64 420.365L1239.36 419.347ZM1244.36 430.884C1244.68 431.335 1245.3 431.442 1245.75 431.123C1246.2 430.804 1246.31 430.18 1245.99 429.729L1244.36 430.884ZM1253.76 439.171C1253.38 438.777 1252.74 438.771 1252.35 439.158C1251.95 439.544 1251.95 440.177 1252.33 440.572L1253.76 439.171ZM1262.11 448.527C1262.57 448.822 1263.19 448.682 1263.49 448.215C1263.78 447.747 1263.64 447.13 1263.17 446.835L1262.11 448.527ZM1274.15 451.942C1273.63 451.773 1273.07 452.062 1272.9 452.588C1272.73 453.114 1273.02 453.677 1273.54 453.846L1274.15 451.942ZM1286.32 456.461C1286.87 456.518 1287.36 456.12 1287.42 455.57C1287.47 455.021 1287.08 454.529 1286.53 454.471L1286.32 456.461ZM1299.54 454.394C1298.99 454.463 1298.6 454.963 1298.67 455.511C1298.74 456.059 1299.24 456.447 1299.79 456.378L1299.54 454.394ZM1312.8 452.952C1313.31 452.741 1313.56 452.156 1313.35 451.646C1313.13 451.135 1312.55 450.893 1312.04 451.104L1312.8 452.952ZM1323.25 444.618C1322.81 444.952 1322.72 445.58 1323.06 446.019C1323.39 446.458 1324.02 446.543 1324.46 446.208L1323.25 444.618ZM1334.18 436.938C1334.54 436.518 1334.49 435.887 1334.07 435.528C1333.65 435.169 1333.02 435.218 1332.66 435.638L1334.18 436.938ZM1340.29 425.018C1340 425.49 1340.15 426.105 1340.62 426.392C1341.09 426.679 1341.71 426.529 1342 426.057L1340.29 425.018ZM1348.19 414.212C1348.42 413.708 1348.19 413.116 1347.69 412.889C1347.19 412.662 1346.59 412.887 1346.37 413.39L1348.19 414.212ZM1351.17 401.141C1350.99 401.664 1351.27 402.231 1351.79 402.409C1352.31 402.586 1352.88 402.306 1353.06 401.783L1351.17 401.141ZM1356.82 388.999C1356.95 388.464 1356.63 387.92 1356.09 387.785C1355.56 387.651 1355.01 387.976 1354.88 388.511L1356.82 388.999ZM1357.6 375.642C1357.51 376.186 1357.87 376.703 1358.42 376.796C1358.96 376.889 1359.48 376.524 1359.57 375.979L1357.6 375.642ZM1440.27 117.064C1438.08 116.449 1435.96 116.032 1433.93 115.8L1433.7 117.787C1435.62 118.006 1437.63 118.402 1439.73 118.99L1440.27 117.064ZM1421.09 116.994C1417.01 118.334 1413.34 120.575 1410 123.498L1411.32 125.002C1414.49 122.225 1417.93 120.137 1421.72 118.895L1421.09 116.994ZM1401.57 133.127C1399.25 136.434 1397.09 140.086 1395.03 143.973L1396.8 144.908C1398.83 141.074 1400.95 137.497 1403.21 134.276L1401.57 133.127ZM1389.53 155.341C1387.84 159.109 1386.19 162.992 1384.55 166.911L1386.39 167.683C1388.03 163.769 1389.67 159.906 1391.36 156.161L1389.53 155.341ZM1379.7 178.508C1378.06 182.395 1376.39 186.246 1374.67 189.994L1376.49 190.83C1378.22 187.055 1379.9 183.182 1381.54 179.287L1379.7 178.508ZM1369.1 201.19C1367.05 204.966 1364.89 208.525 1362.57 211.778L1364.2 212.938C1366.57 209.605 1368.78 205.974 1370.86 202.146L1369.1 201.19ZM1354.52 221.106C1351.43 223.966 1348.09 226.287 1344.43 227.944L1345.26 229.766C1349.14 228.006 1352.66 225.555 1355.88 222.574L1354.52 221.106ZM1332.65 230.794C1330.69 230.9 1328.65 230.847 1326.52 230.622L1326.31 232.611C1328.54 232.847 1330.69 232.903 1332.76 232.791L1332.65 230.794ZM1326.52 230.622C1324.17 230.374 1321.96 229.939 1319.87 229.335L1319.32 231.257C1321.52 231.893 1323.85 232.351 1326.31 232.611L1326.52 230.622ZM1307.93 223.284C1304.4 220.604 1301.29 217.316 1298.47 213.596L1296.87 214.805C1299.78 218.635 1303.02 222.062 1306.72 224.876L1307.93 223.284ZM1291.14 202.037C1288.98 198.074 1286.97 193.911 1285.01 189.684L1283.2 190.524C1285.16 194.767 1287.19 198.975 1289.38 202.994L1291.14 202.037ZM1279.26 177.079C1277.28 172.786 1275.24 168.574 1273.07 164.61L1271.31 165.572C1273.46 169.477 1275.47 173.641 1277.44 177.918L1279.26 177.079ZM1265.41 152.87C1262.36 149.065 1258.93 145.805 1254.97 143.364L1253.92 145.067C1257.64 147.36 1260.9 150.448 1263.85 154.122L1265.41 152.87ZM1241.57 138.808C1239.32 138.566 1236.95 138.531 1234.44 138.722L1234.59 140.716C1236.99 140.534 1239.24 140.568 1241.36 140.797L1241.57 138.808ZM1234.44 138.722C1232.33 138.883 1230.34 139.2 1228.45 139.66L1228.92 141.603C1230.7 141.17 1232.59 140.869 1234.59 140.716L1234.44 138.722ZM1217.44 144.569C1214.14 146.831 1211.27 149.634 1208.69 152.797L1210.25 154.059C1212.72 151.012 1215.46 148.351 1218.57 146.219L1217.44 144.569ZM1202.05 162.686C1200.12 166.056 1198.33 169.603 1196.6 173.197L1198.4 174.067C1200.12 170.489 1201.89 166.99 1203.78 163.679L1202.05 162.686ZM1191.54 183.827C1189.81 187.399 1188.05 190.9 1186.16 194.219L1187.89 195.21C1189.82 191.832 1191.61 188.285 1193.34 184.697L1191.54 183.827ZM1179.72 203.861C1177.26 206.919 1174.54 209.606 1171.45 211.783L1172.6 213.418C1175.87 211.112 1178.72 208.286 1181.28 205.115L1179.72 203.861ZM1161.18 216.592C1159.41 217.065 1157.53 217.408 1155.53 217.606L1155.73 219.596C1157.83 219.388 1159.81 219.026 1161.7 218.525L1161.18 216.592ZM1155.53 217.606C1153.44 217.813 1151.46 217.849 1149.58 217.729L1149.45 219.725C1151.45 219.852 1153.54 219.813 1155.73 219.596L1155.53 217.606ZM1138.27 214.756C1134.78 213.034 1131.67 210.635 1128.83 207.705L1127.4 209.096C1130.36 212.16 1133.66 214.708 1137.38 216.549L1138.27 214.756ZM1121.53 198.228C1119.45 194.957 1117.52 191.407 1115.67 187.681L1113.88 188.57C1115.75 192.337 1117.71 195.952 1119.84 199.3L1121.53 198.228ZM1110.55 176.66C1108.93 173.004 1107.29 169.185 1105.65 165.501L1103.82 166.313C1105.48 170.052 1107.07 173.731 1108.72 177.469L1110.55 176.66ZM1100.49 154.417C1098.62 150.671 1096.65 147.054 1094.51 143.677L1092.82 144.745C1094.91 148.05 1096.85 151.604 1098.7 155.309L1100.49 154.417ZM1087.07 133.834C1084.18 130.73 1080.99 128.066 1077.4 126.006L1076.4 127.741C1079.79 129.684 1082.83 132.212 1085.6 135.196L1087.07 133.834ZM1065.65 121.853C1063.66 121.532 1061.58 121.365 1059.4 121.365V123.365C1061.47 123.365 1063.45 123.524 1065.33 123.828L1065.65 121.853ZM1059.4 121.365C1057.32 121.365 1055.31 121.454 1053.36 121.627L1053.54 123.619C1055.42 123.451 1057.37 123.365 1059.4 123.365V121.365ZM1041.54 123.913C1037.55 125.145 1033.89 126.796 1030.5 128.801L1031.51 130.523C1034.78 128.594 1038.3 127.008 1042.13 125.824L1041.54 123.913ZM1020.83 135.997C1017.92 138.655 1015.2 141.598 1012.63 144.759L1014.18 146.021C1016.7 142.922 1019.35 140.055 1022.18 137.476L1020.83 135.997ZM1005.56 154.397C1003.39 157.635 1001.29 161.01 999.199 164.471L1000.91 165.504C1002.99 162.059 1005.08 158.713 1007.22 155.511L1005.56 154.397ZM993.157 174.705C991.182 178.08 989.184 181.49 987.12 184.901L988.831 185.936C990.904 182.511 992.909 179.089 994.883 175.714L993.157 174.705ZM980.811 194.907C978.651 198.169 976.395 201.393 974.005 204.544L975.599 205.753C978.019 202.562 980.3 199.302 982.479 196.011L980.811 194.907ZM966.507 213.627C965.197 215.076 963.847 216.5 962.453 217.894L963.867 219.308C965.286 217.889 966.659 216.441 967.991 214.968L966.507 213.627ZM962.453 217.894C961.003 219.344 959.526 220.76 958.026 222.144L959.383 223.614C960.901 222.213 962.397 220.778 963.867 219.308L962.453 217.894ZM948.704 230.135C945.494 232.7 942.21 235.152 938.874 237.514L940.029 239.146C943.393 236.765 946.709 234.289 949.952 231.698L948.704 230.135ZM928.665 244.386C925.197 246.615 921.699 248.771 918.193 250.875L919.222 252.59C922.742 250.478 926.258 248.311 929.747 246.068L928.665 244.386ZM907.558 257.12C903.962 259.197 900.391 261.237 896.854 263.273L897.852 265.006C901.379 262.976 904.962 260.929 908.558 258.851L907.558 257.12ZM886.173 269.507C882.575 271.652 879.052 273.813 875.635 276.016L876.719 277.697C880.111 275.51 883.613 273.361 887.197 271.225L886.173 269.507ZM865.397 283.026C861.991 285.523 858.74 288.104 855.683 290.802L857.007 292.302C860.011 289.65 863.214 287.107 866.58 284.639L865.397 283.026ZM846.849 299.605C844.081 302.758 841.575 306.083 839.376 309.62L841.074 310.676C843.21 307.241 845.649 304.003 848.352 300.924L846.849 299.605ZM833.78 320.822C832.32 324.606 831.178 328.611 830.393 332.87L832.359 333.233C833.123 329.095 834.231 325.21 835.646 321.542L833.78 320.822ZM829.156 345.308C829.114 347.341 829.143 349.426 829.246 351.565L831.244 351.468C831.143 349.374 831.114 347.335 831.156 345.349L829.156 345.308ZM829.246 351.565C829.342 353.563 829.481 355.554 829.662 357.538L831.654 357.356C831.476 355.401 831.339 353.438 831.244 351.468L829.246 351.565ZM831.257 369.404C831.959 373.35 832.826 377.25 833.851 381.091L835.784 380.576C834.773 376.788 833.918 372.943 833.226 369.054L831.257 369.404ZM837.426 392.517C838.783 396.289 840.297 399.987 841.959 403.598L843.776 402.762C842.138 399.203 840.646 395.558 839.307 391.84L837.426 392.517ZM847.432 414.248C849.42 417.732 851.553 421.113 853.824 424.375L855.466 423.233C853.229 420.02 851.128 416.69 849.169 413.257L847.432 414.248ZM861.115 433.88C863.703 436.946 866.426 439.876 869.276 442.654L870.672 441.221C867.869 438.49 865.19 435.608 862.643 432.59L861.115 433.88ZM878.271 450.576C881.411 453.067 884.673 455.387 888.047 457.52L889.115 455.829C885.803 453.735 882.599 451.457 879.514 449.009L878.271 450.576ZM898.529 463.353C902.123 465.094 905.821 466.633 909.614 467.952L910.271 466.063C906.553 464.77 902.927 463.261 899.402 461.553L898.529 463.353ZM921.164 471.212C925.038 472.06 928.993 472.683 933.022 473.07L933.213 471.079C929.264 470.7 925.388 470.089 921.592 469.259L921.164 471.212ZM945.017 473.507C947.001 473.463 949 473.362 951.013 473.202L950.855 471.209C948.88 471.365 946.919 471.464 944.972 471.507L945.017 473.507ZM951.013 473.202C953.23 473.026 955.355 472.741 957.395 472.353L957.021 470.388C955.055 470.762 953.002 471.038 950.855 471.209L951.013 473.202ZM969.598 468.415C973.569 466.535 977.135 464.183 980.387 461.46L979.103 459.927C975.97 462.55 972.546 464.806 968.742 466.607L969.598 468.415ZM989.29 452.282C991.912 449.034 994.326 445.534 996.615 441.873L994.92 440.812C992.661 444.425 990.293 447.856 987.734 451.026L989.29 452.282ZM1002.97 430.901C1004.97 427.242 1006.94 423.5 1008.93 419.767L1007.16 418.826C1005.16 422.573 1003.21 426.295 1001.21 429.943L1002.97 430.901ZM1015 408.744C1017.1 405.109 1019.29 401.544 1021.64 398.113L1019.99 396.982C1017.6 400.467 1015.38 404.078 1013.27 407.743L1015 408.744ZM1029.29 388.241C1032.03 385.144 1034.99 382.251 1038.25 379.628L1037 378.07C1033.64 380.772 1030.6 383.745 1027.79 386.915L1029.29 388.241ZM1048.61 372.81C1050.41 371.864 1052.29 370.988 1054.25 370.191L1053.5 368.338C1051.47 369.16 1049.54 370.063 1047.68 371.04L1048.61 372.81ZM1054.25 370.191C1056.14 369.423 1058.02 368.681 1059.88 367.965L1059.16 366.098C1057.29 366.819 1055.4 367.566 1053.5 368.338L1054.25 370.191ZM1071.25 363.863C1075.15 362.554 1078.99 361.37 1082.79 360.315L1082.25 358.388C1078.42 359.453 1074.54 360.647 1070.61 361.967L1071.25 363.863ZM1094.5 357.441C1098.49 356.596 1102.45 355.903 1106.37 355.367L1106.1 353.385C1102.12 353.929 1098.12 354.63 1094.08 355.484L1094.5 357.441ZM1118.36 354.212C1122.38 353.99 1126.38 353.939 1130.39 354.062L1130.46 352.063C1126.39 351.938 1122.32 351.99 1118.25 352.215L1118.36 354.212ZM1142.4 354.952C1146.34 355.415 1150.3 356.049 1154.29 356.857L1154.69 354.897C1150.64 354.078 1146.63 353.435 1142.63 352.965L1142.4 354.952ZM1165.99 359.699C1169.78 360.767 1173.6 361.99 1177.48 363.37L1178.15 361.486C1174.23 360.092 1170.37 358.855 1166.54 357.774L1165.99 359.699ZM1188.73 367.752C1190.56 368.526 1192.4 369.334 1194.27 370.176L1195.09 368.354C1193.21 367.505 1191.35 366.69 1189.5 365.91L1188.73 367.752ZM1194.27 370.176C1196.17 371.037 1197.98 371.972 1199.7 372.973L1200.71 371.244C1198.92 370.209 1197.06 369.243 1195.09 368.354L1194.27 370.176ZM1209.56 380.125C1212.64 382.863 1215.41 385.848 1217.95 389.004L1219.51 387.748C1216.91 384.52 1214.06 381.452 1210.88 378.63L1209.56 380.125ZM1225.09 399.009C1227.31 402.476 1229.39 406.032 1231.44 409.602L1233.18 408.606C1231.12 405.028 1229.02 401.438 1226.77 397.93L1225.09 399.009ZM1237.64 420.365C1239.78 423.981 1241.98 427.521 1244.36 430.884L1245.99 429.729C1243.66 426.429 1241.49 422.939 1239.36 419.347L1237.64 420.365ZM1252.33 440.572C1255.25 443.548 1258.47 446.235 1262.11 448.527L1263.17 446.835C1259.69 444.637 1256.59 442.051 1253.76 439.171L1252.33 440.572ZM1273.54 453.846C1275.49 454.472 1277.53 455.005 1279.67 455.437L1280.07 453.477C1277.99 453.059 1276.03 452.545 1274.15 451.942L1273.54 453.846ZM1279.67 455.437C1281.95 455.896 1284.16 456.234 1286.32 456.461L1286.53 454.471C1284.44 454.252 1282.28 453.923 1280.07 453.477L1279.67 455.437ZM1299.79 456.378C1304.46 455.789 1308.8 454.611 1312.8 452.952L1312.04 451.104C1308.19 452.695 1304.04 453.827 1299.54 454.394L1299.79 456.378ZM1324.46 446.208C1328.04 443.483 1331.27 440.347 1334.18 436.938L1332.66 435.638C1329.83 438.954 1326.7 441.989 1323.25 444.618L1324.46 446.208ZM1342 426.057C1344.33 422.208 1346.39 418.214 1348.19 414.212L1346.37 413.39C1344.59 417.33 1342.58 421.249 1340.29 425.018L1342 426.057ZM1353.06 401.783C1354.59 397.279 1355.82 392.948 1356.82 388.999L1354.88 388.511C1353.89 392.415 1352.67 396.695 1351.17 401.141L1353.06 401.783ZM1359.57 375.979C1359.92 373.923 1360.16 372.274 1360.32 371.138C1360.39 370.57 1360.45 370.13 1360.48 369.83C1360.5 369.681 1360.51 369.566 1360.52 369.489C1360.53 369.45 1360.53 369.42 1360.53 369.4C1360.53 369.39 1360.53 369.382 1360.53 369.377C1360.53 369.374 1360.53 369.372 1360.54 369.371C1360.54 369.37 1360.54 369.369 1360.54 369.369C1360.54 369.368 1360.54 369.368 1360.54 369.368C1360.54 369.368 1360.54 369.368 1360.54 369.368C1360.54 369.368 1360.54 369.368 1359.54 369.265C1358.55 369.162 1358.55 369.162 1358.55 369.162V369.162C1358.55 369.162 1358.55 369.162 1358.55 369.162C1358.55 369.162 1358.55 369.162 1358.55 369.163C1358.55 369.164 1358.55 369.165 1358.55 369.167C1358.55 369.171 1358.54 369.178 1358.54 369.187C1358.54 369.205 1358.54 369.232 1358.53 369.268C1358.53 369.341 1358.51 369.451 1358.5 369.595C1358.46 369.885 1358.41 370.314 1358.33 370.872C1358.19 371.986 1357.95 373.611 1357.6 375.642L1359.57 375.979Z" fill="#FFE699"/>
<path d="M1422.59 110.41C1423.13 110.559 1423.68 110.249 1423.83 109.717C1423.98 109.185 1423.66 108.633 1423.13 108.484L1422.59 110.41ZM1309.27 223.037L1309.38 222.042L1309.27 223.037ZM1217.38 131.14L1217.3 130.142L1217.38 131.14ZM1138.49 210.021L1138.59 211.016L1138.49 210.021ZM946.024 210.021L945.316 209.314L946.024 210.021ZM813.108 342.937L814.107 342.889L813.108 342.937ZM933.797 463.626L933.876 464.623L933.797 463.626ZM1036.74 360.685L1037.11 361.612L1036.74 360.685ZM1177.54 360.685L1177.13 361.596L1177.54 360.685ZM1262.73 445.877L1262.54 446.858L1262.73 445.877ZM1347.74 360.685C1347.74 357.74 1345.35 355.352 1342.4 355.352C1339.46 355.352 1337.07 357.74 1337.07 360.685C1337.07 363.631 1339.46 366.019 1342.4 366.019C1345.35 366.019 1347.74 363.631 1347.74 360.685ZM1416.79 107.22C1416.24 107.158 1415.75 107.552 1415.69 108.101C1415.62 108.649 1416.02 109.145 1416.57 109.207L1416.79 107.22ZM1404.58 110.315C1405.11 110.143 1405.39 109.579 1405.22 109.054C1405.05 108.529 1404.48 108.243 1403.96 108.415L1404.58 110.315ZM1392.87 114.918C1392.45 115.282 1392.41 115.914 1392.77 116.33C1393.14 116.745 1393.77 116.786 1394.19 116.422L1392.87 114.918ZM1386.07 125.697C1386.39 125.244 1386.28 124.621 1385.83 124.304C1385.38 123.986 1384.75 124.096 1384.44 124.548L1386.07 125.697ZM1377.9 135.393C1377.64 135.881 1377.83 136.486 1378.31 136.745C1378.8 137.003 1379.41 136.816 1379.67 136.328L1377.9 135.393ZM1374.22 147.582C1374.45 147.078 1374.22 146.486 1373.72 146.26C1373.22 146.033 1372.62 146.258 1372.4 146.762L1374.22 147.582ZM1367.41 158.331C1367.2 158.841 1367.44 159.426 1367.95 159.64C1368.46 159.853 1369.04 159.613 1369.26 159.104L1367.41 158.331ZM1364.41 170.707C1364.62 170.198 1364.38 169.612 1363.88 169.397C1363.37 169.182 1362.78 169.42 1362.56 169.929L1364.41 170.707ZM1357.53 181.415C1357.3 181.916 1357.52 182.51 1358.02 182.741C1358.52 182.972 1359.12 182.752 1359.35 182.251L1357.53 181.415ZM1353.72 193.566C1353.99 193.081 1353.81 192.474 1353.32 192.21C1352.84 191.946 1352.23 192.125 1351.97 192.61L1353.72 193.566ZM1345.43 203.199C1345.11 203.649 1345.22 204.273 1345.67 204.593C1346.12 204.913 1346.74 204.808 1347.06 204.358L1345.43 203.199ZM1338.74 213.994C1339.15 213.619 1339.17 212.986 1338.8 212.581C1338.42 212.176 1337.79 212.152 1337.38 212.527L1338.74 213.994ZM1327.3 219.365C1326.79 219.593 1326.57 220.185 1326.8 220.688C1327.02 221.191 1327.62 221.414 1328.12 221.186L1327.3 219.365ZM1315.62 224.212C1316.17 224.182 1316.6 223.711 1316.57 223.159C1316.54 222.608 1316.07 222.185 1315.51 222.214L1315.62 224.212ZM1302.73 220.756C1302.2 220.602 1301.65 220.908 1301.5 221.439C1301.34 221.969 1301.65 222.524 1302.18 222.677L1302.73 220.756ZM1289.58 216.296C1290.02 216.631 1290.65 216.545 1290.98 216.106C1291.31 215.666 1291.23 215.039 1290.79 214.705L1289.58 216.296ZM1281.33 205.016C1281 204.577 1280.37 204.49 1279.93 204.824C1279.49 205.158 1279.4 205.785 1279.74 206.225L1281.33 205.016ZM1272.24 194.414C1272.51 194.899 1273.11 195.078 1273.6 194.814C1274.08 194.55 1274.26 193.943 1274 193.458L1272.24 194.414ZM1267.87 181.104C1267.64 180.603 1267.05 180.384 1266.55 180.616C1266.05 180.848 1265.83 181.443 1266.06 181.944L1267.87 181.104ZM1260.31 169.339C1260.54 169.84 1261.13 170.059 1261.64 169.827C1262.14 169.595 1262.36 169.001 1262.12 168.5L1260.31 169.339ZM1255.93 156.03C1255.66 155.546 1255.06 155.369 1254.57 155.635C1254.09 155.901 1253.91 156.508 1254.18 156.993L1255.93 156.03ZM1246.71 145.542C1247.06 145.973 1247.69 146.042 1248.12 145.696C1248.55 145.351 1248.62 144.721 1248.27 144.29L1246.71 145.542ZM1237.84 134.785C1237.37 134.495 1236.75 134.641 1236.46 135.112C1236.17 135.582 1236.32 136.198 1236.79 136.488L1237.84 134.785ZM1224.22 132.217C1224.77 132.276 1225.26 131.879 1225.32 131.33C1225.38 130.781 1224.99 130.288 1224.44 130.229L1224.22 132.217ZM1211.31 131.08C1210.77 131.21 1210.44 131.751 1210.57 132.288C1210.7 132.825 1211.24 133.154 1211.78 133.023L1211.31 131.08ZM1201.44 137.639C1201.89 137.327 1202.01 136.705 1201.7 136.249C1201.38 135.793 1200.76 135.677 1200.31 135.989L1201.44 137.639ZM1191.56 144.218C1191.21 144.646 1191.27 145.276 1191.7 145.624C1192.13 145.973 1192.76 145.908 1193.11 145.479L1191.56 144.218ZM1186.64 155.1C1186.92 154.621 1186.75 154.01 1186.27 153.735C1185.79 153.461 1185.18 153.627 1184.91 154.107L1186.64 155.1ZM1179.46 164.617C1179.22 165.115 1179.43 165.713 1179.92 165.953C1180.42 166.193 1181.02 165.984 1181.26 165.487L1179.46 164.617ZM1176.2 176.117C1176.44 175.62 1176.23 175.022 1175.73 174.782C1175.24 174.542 1174.64 174.75 1174.4 175.248L1176.2 176.117ZM1169.02 185.639C1168.75 186.119 1168.91 186.73 1169.39 187.003C1169.87 187.277 1170.48 187.11 1170.76 186.63L1169.02 185.639ZM1164.14 196.535C1164.48 196.105 1164.42 195.475 1163.99 195.129C1163.56 194.783 1162.93 194.851 1162.58 195.281L1164.14 196.535ZM1154.32 203.204C1153.86 203.522 1153.76 204.146 1154.07 204.597C1154.39 205.049 1155.02 205.156 1155.47 204.838L1154.32 203.204ZM1144.56 209.945C1145.09 209.803 1145.41 209.255 1145.27 208.721C1145.13 208.188 1144.58 207.87 1144.05 208.013L1144.56 209.945ZM1132.44 209.149C1131.89 209.114 1131.41 209.533 1131.38 210.084C1131.34 210.635 1131.76 211.11 1132.31 211.145L1132.44 209.149ZM1120.25 207.97C1120.74 208.214 1121.34 208.011 1121.59 207.516C1121.83 207.021 1121.63 206.421 1121.13 206.177L1120.25 207.97ZM1111.7 199.125C1111.31 198.729 1110.68 198.719 1110.28 199.103C1109.89 199.487 1109.88 200.12 1110.26 200.517L1111.7 199.125ZM1102.7 190.721C1103 191.187 1103.61 191.325 1104.08 191.029C1104.55 190.733 1104.69 190.115 1104.39 189.649L1102.7 190.721ZM1098.53 179.101C1098.29 178.606 1097.69 178.405 1097.19 178.65C1096.7 178.896 1096.5 179.496 1096.74 179.99L1098.53 179.101ZM1091.59 168.89C1091.81 169.395 1092.4 169.623 1092.91 169.399C1093.41 169.176 1093.64 168.585 1093.42 168.08L1091.59 168.89ZM1088.52 156.922C1088.29 156.417 1087.7 156.189 1087.2 156.413C1086.69 156.637 1086.46 157.228 1086.69 157.733L1088.52 156.922ZM1081.56 146.73C1081.81 147.224 1082.41 147.425 1082.9 147.179C1083.39 146.932 1083.6 146.332 1083.35 145.837L1081.56 146.73ZM1077.38 135.097C1077.08 134.63 1076.46 134.491 1076 134.786C1075.53 135.081 1075.39 135.698 1075.69 136.165L1077.38 135.097ZM1068.46 126.616C1068.84 127.021 1069.47 127.044 1069.88 126.668C1070.28 126.291 1070.3 125.659 1069.93 125.254L1068.46 126.616ZM1060.26 117.427C1059.78 117.152 1059.17 117.317 1058.9 117.796C1058.62 118.275 1058.79 118.886 1059.27 119.161L1060.26 117.427ZM1048.19 115.248C1048.74 115.336 1049.25 114.966 1049.34 114.42C1049.43 113.875 1049.06 113.362 1048.51 113.274L1048.19 115.248ZM1036.22 113.047C1035.67 113.096 1035.27 113.582 1035.32 114.132C1035.36 114.682 1035.85 115.088 1036.4 115.039L1036.22 113.047ZM1024.99 117.244C1025.52 117.081 1025.81 116.521 1025.65 115.993C1025.49 115.466 1024.93 115.17 1024.4 115.334L1024.99 117.244ZM1013.36 120.221C1012.88 120.502 1012.73 121.115 1013.01 121.59C1013.29 122.066 1013.9 122.224 1014.38 121.943L1013.36 120.221ZM1005.04 128.896C1005.45 128.524 1005.48 127.892 1005.11 127.483C1004.74 127.075 1004.1 127.046 1003.7 127.418L1005.04 128.896ZM995.493 136.179C995.145 136.607 995.209 137.237 995.638 137.586C996.066 137.935 996.696 137.87 997.045 137.442L995.493 136.179ZM990.087 146.932C990.394 146.473 990.272 145.852 989.813 145.544C989.354 145.237 988.733 145.359 988.426 145.818L990.087 146.932ZM982.062 155.892C981.777 156.365 981.929 156.979 982.402 157.264C982.875 157.55 983.489 157.397 983.775 156.924L982.062 155.892ZM977.746 167.135C978.025 166.658 977.865 166.045 977.388 165.767C976.911 165.488 976.299 165.648 976.02 166.125L977.746 167.135ZM969.983 176.321C969.697 176.794 969.848 177.408 970.321 177.694C970.793 177.98 971.408 177.829 971.694 177.357L969.983 176.321ZM965.342 187.431C965.647 186.971 965.521 186.35 965.06 186.045C964.6 185.74 963.979 185.867 963.674 186.327L965.342 187.431ZM956.868 195.965C956.535 196.405 956.621 197.032 957.061 197.366C957.501 197.7 958.128 197.613 958.462 197.173L956.868 195.965ZM950.854 206.388C951.224 205.979 951.192 205.346 950.783 204.976C950.373 204.606 949.74 204.638 949.37 205.047L950.854 206.388ZM940.89 213.565C940.484 213.939 940.458 214.572 940.833 214.978C941.207 215.384 941.84 215.409 942.246 215.035L940.89 213.565ZM932.816 223.118C933.247 222.773 933.317 222.144 932.973 221.713C932.628 221.281 931.999 221.211 931.567 221.555L932.816 223.118ZM921.737 228.934C921.286 229.253 921.179 229.877 921.498 230.328C921.817 230.779 922.442 230.886 922.892 230.567L921.737 228.934ZM912.61 237.489C913.075 237.19 913.209 236.571 912.911 236.107C912.612 235.642 911.993 235.508 911.529 235.806L912.61 237.489ZM901.056 242.295C900.583 242.58 900.429 243.194 900.714 243.667C900.998 244.141 901.612 244.295 902.086 244.01L901.056 242.295ZM891.422 250.272C891.9 249.996 892.064 249.384 891.787 248.906C891.511 248.428 890.9 248.264 890.421 248.54L891.422 250.272ZM879.717 254.693C879.239 254.968 879.074 255.58 879.349 256.058C879.625 256.537 880.236 256.702 880.715 256.426L879.717 254.693ZM870.06 262.646C870.534 262.363 870.69 261.749 870.407 261.275C870.124 260.8 869.51 260.645 869.036 260.928L870.06 262.646ZM858.498 267.437C858.034 267.736 857.901 268.355 858.2 268.819C858.499 269.283 859.118 269.417 859.582 269.118L858.498 267.437ZM849.443 276.06C849.888 275.733 849.985 275.107 849.658 274.662C849.332 274.216 848.706 274.12 848.261 274.447L849.443 276.06ZM838.546 282.223C838.132 282.588 838.093 283.22 838.458 283.634C838.824 284.048 839.456 284.088 839.87 283.722L838.546 282.223ZM831.215 292.345C831.579 291.93 831.538 291.298 831.123 290.934C830.708 290.569 830.076 290.61 829.712 291.026L831.215 292.345ZM822.239 301.04C821.948 301.509 822.091 302.126 822.56 302.418C823.029 302.709 823.646 302.565 823.938 302.096L822.239 301.04ZM818.51 312.962C818.708 312.447 818.452 311.868 817.937 311.669C817.421 311.47 816.843 311.727 816.644 312.242L818.51 312.962ZM813.256 324.29C813.156 324.833 813.515 325.355 814.058 325.455C814.601 325.555 815.123 325.196 815.223 324.653L813.256 324.29ZM814.019 336.77C814.03 336.217 813.592 335.761 813.04 335.749C812.488 335.738 812.031 336.176 812.019 336.728L814.019 336.77ZM812.526 348.959C812.576 349.509 813.062 349.914 813.612 349.864C814.162 349.813 814.568 349.327 814.517 348.777L812.526 348.959ZM816.089 360.474C815.993 359.93 815.473 359.568 814.93 359.665C814.386 359.762 814.023 360.281 814.12 360.824L816.089 360.474ZM816.715 372.512C816.857 373.045 817.405 373.363 817.939 373.22C818.472 373.078 818.789 372.53 818.647 371.996L816.715 372.512ZM822.171 383.26C821.983 382.741 821.411 382.471 820.891 382.658C820.371 382.845 820.102 383.418 820.289 383.938L822.171 383.26ZM824.822 395.019C825.053 395.52 825.647 395.74 826.149 395.509C826.65 395.278 826.87 394.684 826.639 394.183L824.822 395.019ZM832.032 404.678C831.759 404.198 831.148 404.031 830.668 404.305C830.188 404.578 830.021 405.189 830.295 405.669L832.032 404.678ZM836.688 415.796C837.003 416.249 837.627 416.361 838.08 416.045C838.533 415.73 838.645 415.106 838.329 414.653L836.688 415.796ZM845.506 424.011C845.15 423.589 844.519 423.535 844.097 423.891C843.675 424.248 843.622 424.879 843.978 425.301L845.506 424.011ZM852.139 434.074C852.535 434.46 853.168 434.451 853.553 434.056C853.939 433.661 853.931 433.027 853.535 432.642L852.139 434.074ZM862.377 440.43C861.945 440.086 861.315 440.159 860.972 440.592C860.629 441.024 860.701 441.653 861.134 441.996L862.377 440.43ZM870.91 448.94C871.377 449.235 871.995 449.096 872.29 448.629C872.585 448.162 872.446 447.544 871.979 447.249L870.91 448.94ZM882.265 452.973C881.768 452.733 881.17 452.94 880.929 453.437C880.688 453.934 880.896 454.532 881.393 454.773L882.265 452.973ZM892.477 459.372C892.999 459.553 893.569 459.278 893.75 458.756C893.932 458.234 893.656 457.664 893.134 457.483L892.477 459.372ZM904.455 460.679C903.915 460.561 903.382 460.903 903.264 461.442C903.146 461.982 903.488 462.515 904.028 462.633L904.455 460.679ZM915.885 464.49C916.435 464.543 916.924 464.14 916.976 463.59C917.029 463.04 916.626 462.552 916.076 462.499L915.885 464.49ZM927.836 462.928C927.284 462.94 926.846 463.397 926.858 463.949C926.87 464.502 927.328 464.939 927.88 464.927L927.836 462.928ZM940.258 463.773C940.801 463.67 941.157 463.146 941.054 462.604C940.95 462.061 940.427 461.705 939.884 461.808L940.258 463.773ZM951.605 458.027C951.106 458.264 950.893 458.86 951.129 459.359C951.366 459.858 951.962 460.071 952.461 459.835L951.605 458.027ZM963.25 452.881C963.674 452.526 963.73 451.896 963.375 451.472C963.021 451.049 962.39 450.993 961.967 451.347L963.25 452.881ZM970.597 442.446C970.251 442.876 970.318 443.505 970.748 443.852C971.177 444.199 971.807 444.132 972.154 443.702L970.597 442.446ZM979.479 433.293C979.772 432.825 979.629 432.208 979.161 431.915C978.693 431.622 978.076 431.765 977.783 432.233L979.479 433.293ZM984.077 421.363C983.812 421.848 983.991 422.455 984.475 422.72C984.96 422.985 985.568 422.807 985.832 422.322L984.077 421.363ZM991.791 411.188C992.051 410.7 991.867 410.095 991.379 409.835C990.892 409.575 990.286 409.759 990.026 410.246L991.791 411.188ZM996.13 399.164C995.854 399.642 996.017 400.254 996.496 400.53C996.974 400.806 997.585 400.642 997.862 400.164L996.13 399.164ZM1004.51 389.533C1004.82 389.078 1004.7 388.455 1004.25 388.143C1003.79 387.831 1003.17 387.947 1002.86 388.402L1004.51 389.533ZM1010.65 378.335C1010.29 378.749 1010.32 379.381 1010.74 379.747C1011.15 380.113 1011.78 380.074 1012.15 379.661L1010.65 378.335ZM1021.11 371.048C1021.54 370.702 1021.61 370.072 1021.26 369.642C1020.92 369.212 1020.29 369.144 1019.86 369.491L1021.11 371.048ZM1030.54 362.46C1030.05 362.717 1029.86 363.322 1030.12 363.811C1030.38 364.3 1030.98 364.488 1031.47 364.231L1030.54 362.46ZM1042.74 359.385C1043.26 359.187 1043.51 358.608 1043.32 358.093C1043.12 357.577 1042.54 357.32 1042.02 357.519L1042.74 359.385ZM1053.47 353.387C1052.95 353.563 1052.67 354.13 1052.84 354.653C1053.02 355.177 1053.59 355.459 1054.11 355.283L1053.47 353.387ZM1065.65 351.735C1066.18 351.587 1066.49 351.036 1066.34 350.504C1066.2 349.972 1065.64 349.66 1065.11 349.808L1065.65 351.735ZM1076.95 346.904C1076.41 347.019 1076.06 347.549 1076.18 348.09C1076.29 348.63 1076.82 348.975 1077.36 348.861L1076.95 346.904ZM1089.24 346.787C1089.78 346.712 1090.17 346.208 1090.09 345.661C1090.02 345.114 1089.51 344.731 1088.96 344.805L1089.24 346.787ZM1101.11 343.635C1100.56 343.666 1100.14 344.137 1100.17 344.689C1100.2 345.24 1100.67 345.663 1101.22 345.632L1101.11 343.635ZM1113.26 345.482C1113.81 345.499 1114.27 345.066 1114.29 344.513C1114.31 343.961 1113.87 343.5 1113.32 343.483L1113.26 345.482ZM1125.5 344.386C1124.95 344.321 1124.45 344.714 1124.39 345.262C1124.32 345.811 1124.71 346.308 1125.26 346.372L1125.5 344.386ZM1137.15 348.277C1137.7 348.387 1138.22 348.037 1138.33 347.496C1138.44 346.954 1138.09 346.427 1137.55 346.317L1137.15 348.277ZM1149.4 349.195C1148.87 349.044 1148.32 349.354 1148.17 349.885C1148.02 350.416 1148.33 350.969 1148.86 351.119L1149.4 349.195ZM1160.34 354.791C1160.86 354.976 1161.43 354.704 1161.62 354.184C1161.8 353.664 1161.53 353.092 1161.01 352.906L1160.34 354.791ZM1172.37 357.33C1171.86 357.115 1171.27 357.354 1171.06 357.863C1170.84 358.371 1171.08 358.958 1171.59 359.173L1172.37 357.33ZM1182.56 364.394C1183.04 364.671 1183.65 364.509 1183.93 364.032C1184.21 363.554 1184.05 362.942 1183.57 362.665L1182.56 364.394ZM1193.75 370.05C1193.34 369.683 1192.7 369.721 1192.34 370.134C1191.97 370.547 1192.01 371.179 1192.42 371.545L1193.75 370.05ZM1200.82 380.424C1201.16 380.854 1201.79 380.921 1202.22 380.574C1202.65 380.227 1202.72 379.598 1202.37 379.168L1200.82 380.424ZM1209.63 389.351C1209.34 388.886 1208.72 388.75 1208.25 389.048C1207.79 389.346 1207.65 389.964 1207.95 390.429L1209.63 389.351ZM1214.31 401.023C1214.58 401.502 1215.19 401.667 1215.67 401.392C1216.15 401.117 1216.32 400.506 1216.04 400.027L1214.31 401.023ZM1222.22 410.767C1221.94 410.292 1221.33 410.135 1220.85 410.416C1220.38 410.697 1220.22 411.31 1220.5 411.785L1222.22 410.767ZM1227.22 422.304C1227.54 422.755 1228.17 422.862 1228.62 422.544C1229.07 422.225 1229.18 421.601 1228.86 421.15L1227.22 422.304ZM1236.63 430.592C1236.24 430.197 1235.61 430.191 1235.21 430.578C1234.82 430.965 1234.81 431.598 1235.2 431.992L1236.63 430.592ZM1244.97 439.948C1245.44 440.242 1246.06 440.102 1246.35 439.635C1246.64 439.168 1246.5 438.55 1246.04 438.256L1244.97 439.948ZM1257.02 443.363C1256.49 443.194 1255.93 443.483 1255.76 444.009C1255.59 444.534 1255.88 445.098 1256.4 445.267L1257.02 443.363ZM1269.18 447.881C1269.73 447.939 1270.22 447.54 1270.28 446.991C1270.34 446.441 1269.94 445.949 1269.39 445.892L1269.18 447.881ZM1282.4 445.814C1281.85 445.883 1281.47 446.384 1281.54 446.931C1281.6 447.479 1282.1 447.868 1282.65 447.799L1282.4 445.814ZM1295.67 444.372C1296.18 444.161 1296.42 443.576 1296.21 443.066C1296 442.556 1295.41 442.313 1294.9 442.524L1295.67 444.372ZM1306.11 436.038C1305.67 436.373 1305.59 437 1305.92 437.439C1306.26 437.879 1306.89 437.964 1307.32 437.629L1306.11 436.038ZM1317.05 428.358C1317.4 427.938 1317.36 427.307 1316.94 426.948C1316.52 426.589 1315.88 426.639 1315.53 427.058L1317.05 428.358ZM1323.15 416.439C1322.86 416.911 1323.01 417.526 1323.49 417.813C1323.96 418.099 1324.57 417.949 1324.86 417.477L1323.15 416.439ZM1331.05 405.632C1331.28 405.129 1331.06 404.536 1330.55 404.31C1330.05 404.083 1329.46 404.307 1329.23 404.811L1331.05 405.632ZM1334.03 392.561C1333.85 393.084 1334.13 393.652 1334.65 393.829C1335.18 394.007 1335.75 393.726 1335.92 393.203L1334.03 392.561ZM1339.68 380.42C1339.81 379.884 1339.49 379.341 1338.95 379.206C1338.42 379.071 1337.88 379.396 1337.74 379.932L1339.68 380.42ZM1340.46 367.062C1340.37 367.607 1340.74 368.123 1341.28 368.217C1341.83 368.31 1342.34 367.944 1342.44 367.4L1340.46 367.062ZM1423.13 108.484C1420.94 107.87 1418.83 107.452 1416.79 107.22L1416.57 109.207C1418.49 109.426 1420.49 109.822 1422.59 110.41L1423.13 108.484ZM1403.96 108.415C1399.87 109.755 1396.2 111.995 1392.87 114.918L1394.19 116.422C1397.35 113.646 1400.79 111.558 1404.58 110.315L1403.96 108.415ZM1384.44 124.548C1382.12 127.855 1379.95 131.507 1377.9 135.393L1379.67 136.328C1381.69 132.494 1383.81 128.917 1386.07 125.697L1384.44 124.548ZM1372.4 146.762C1370.7 150.53 1369.05 154.412 1367.41 158.331L1369.26 159.104C1370.89 155.19 1372.54 151.326 1374.22 147.582L1372.4 146.762ZM1362.56 169.929C1360.92 173.815 1359.26 177.666 1357.53 181.415L1359.35 182.251C1361.09 178.475 1362.76 174.602 1364.41 170.707L1362.56 169.929ZM1351.97 192.61C1349.91 196.387 1347.75 199.946 1345.43 203.199L1347.06 204.358C1349.44 201.025 1351.64 197.395 1353.72 193.566L1351.97 192.61ZM1337.38 212.527C1334.29 215.386 1330.95 217.707 1327.3 219.365L1328.12 221.186C1332 219.427 1335.52 216.976 1338.74 213.994L1337.38 212.527ZM1315.51 222.214C1313.56 222.32 1311.51 222.267 1309.38 222.042L1309.17 224.031C1311.4 224.267 1313.55 224.323 1315.62 224.212L1315.51 222.214ZM1309.38 222.042C1307.03 221.795 1304.82 221.359 1302.73 220.756L1302.18 222.677C1304.38 223.314 1306.71 223.772 1309.17 224.031L1309.38 222.042ZM1290.79 214.705C1287.27 212.024 1284.15 208.737 1281.33 205.016L1279.74 206.225C1282.64 210.055 1285.88 213.483 1289.58 216.296L1290.79 214.705ZM1274 193.458C1271.84 189.494 1269.83 185.331 1267.87 181.104L1266.06 181.944C1268.02 186.187 1270.05 190.395 1272.24 194.414L1274 193.458ZM1262.12 168.5C1260.14 164.206 1258.11 159.995 1255.93 156.03L1254.18 156.993C1256.32 160.898 1258.33 165.061 1260.31 169.339L1262.12 168.5ZM1248.27 144.29C1245.22 140.486 1241.8 137.226 1237.84 134.785L1236.79 136.488C1240.51 138.78 1243.77 141.869 1246.71 145.542L1248.27 144.29ZM1224.44 130.229C1222.19 129.986 1219.81 129.951 1217.3 130.142L1217.45 132.137C1219.85 131.954 1222.1 131.988 1224.22 132.217L1224.44 130.229ZM1217.3 130.142C1215.19 130.303 1213.2 130.62 1211.31 131.08L1211.78 133.023C1213.56 132.59 1215.45 132.289 1217.45 132.137L1217.3 130.142ZM1200.31 135.989C1197 138.252 1194.13 141.054 1191.56 144.218L1193.11 145.479C1195.59 142.432 1198.32 139.772 1201.44 137.639L1200.31 135.989ZM1184.91 154.107C1182.98 157.477 1181.19 161.024 1179.46 164.617L1181.26 165.487C1182.99 161.91 1184.75 158.411 1186.64 155.1L1184.91 154.107ZM1174.4 175.248C1172.68 178.82 1170.91 182.32 1169.02 185.639L1170.76 186.63C1172.68 183.253 1174.47 179.705 1176.2 176.117L1174.4 175.248ZM1162.58 195.281C1160.12 198.34 1157.4 201.027 1154.32 203.204L1155.47 204.838C1158.74 202.532 1161.59 199.707 1164.14 196.535L1162.58 195.281ZM1144.05 208.013C1142.27 208.486 1140.39 208.828 1138.4 209.026L1138.59 211.016C1140.69 210.808 1142.68 210.447 1144.56 209.945L1144.05 208.013ZM1138.4 209.026C1136.31 209.233 1134.33 209.269 1132.44 209.149L1132.31 211.145C1134.31 211.272 1136.4 211.233 1138.59 211.016L1138.4 209.026ZM1121.13 206.177C1117.65 204.454 1114.54 202.055 1111.7 199.125L1110.26 200.517C1113.23 203.58 1116.52 206.129 1120.25 207.97L1121.13 206.177ZM1104.39 189.649C1102.31 186.377 1100.38 182.827 1098.53 179.101L1096.74 179.99C1098.61 183.757 1100.58 187.373 1102.7 190.721L1104.39 189.649ZM1093.42 168.08C1091.8 164.424 1090.15 160.605 1088.52 156.922L1086.69 157.733C1088.35 161.473 1089.93 165.152 1091.59 168.89L1093.42 168.08ZM1083.35 145.837C1081.48 142.091 1079.51 138.475 1077.38 135.097L1075.69 136.165C1077.77 139.47 1079.71 143.024 1081.56 146.73L1083.35 145.837ZM1069.93 125.254C1067.04 122.15 1063.85 119.486 1060.26 117.427L1059.27 119.161C1062.65 121.104 1065.69 123.633 1068.46 126.616L1069.93 125.254ZM1048.51 113.274C1046.52 112.953 1044.44 112.786 1042.26 112.786V114.786C1044.34 114.786 1046.31 114.945 1048.19 115.248L1048.51 113.274ZM1042.26 112.786C1040.18 112.786 1038.17 112.874 1036.22 113.047L1036.4 115.039C1038.28 114.872 1040.24 114.786 1042.26 114.786V112.786ZM1024.4 115.334C1020.42 116.566 1016.76 118.216 1013.36 120.221L1014.38 121.943C1017.64 120.015 1021.16 118.429 1024.99 117.244L1024.4 115.334ZM1003.7 127.418C1000.78 130.076 998.066 133.018 995.493 136.179L997.045 137.442C999.567 134.343 1002.21 131.475 1005.04 128.896L1003.7 127.418ZM988.426 145.818C986.255 149.056 984.149 152.431 982.062 155.892L983.775 156.924C985.852 153.479 987.94 150.134 990.087 146.932L988.426 145.818ZM976.02 166.125C974.046 169.5 972.048 172.91 969.983 176.321L971.694 177.357C973.767 173.932 975.773 170.509 977.746 167.135L976.02 166.125ZM963.674 186.327C961.515 189.59 959.258 192.814 956.868 195.965L958.462 197.173C960.882 193.982 963.163 190.722 965.342 187.431L963.674 186.327ZM949.37 205.047C948.06 206.497 946.71 207.92 945.316 209.314L946.731 210.728C948.15 209.31 949.522 207.861 950.854 206.388L949.37 205.047ZM945.316 209.314C943.866 210.765 942.39 212.181 940.89 213.565L942.246 215.035C943.765 213.633 945.261 212.198 946.731 210.728L945.316 209.314ZM931.567 221.555C928.357 224.12 925.073 226.573 921.737 228.934L922.892 230.567C926.256 228.186 929.572 225.71 932.816 223.118L931.567 221.555ZM911.529 235.806C908.061 238.036 904.562 240.192 901.056 242.295L902.086 244.01C905.605 241.898 909.121 239.732 912.61 237.489L911.529 235.806ZM890.421 248.54C886.825 250.617 883.254 252.657 879.717 254.693L880.715 256.426C884.242 254.396 887.826 252.349 891.422 250.272L890.421 248.54ZM869.036 260.928C865.438 263.072 861.916 265.233 858.498 267.437L859.582 269.118C862.974 266.93 866.476 264.782 870.06 262.646L869.036 260.928ZM848.261 274.447C844.854 276.944 841.603 279.525 838.546 282.223L839.87 283.722C842.874 281.07 846.077 278.527 849.443 276.06L848.261 274.447ZM829.712 291.026C826.944 294.179 824.438 297.504 822.239 301.04L823.938 302.096C826.073 298.661 828.513 295.424 831.215 292.345L829.712 291.026ZM816.644 312.242C815.183 316.027 814.042 320.032 813.256 324.29L815.223 324.653C815.986 320.515 817.094 316.63 818.51 312.962L816.644 312.242ZM812.019 336.728C811.977 338.761 812.006 340.846 812.109 342.985L814.107 342.889C814.006 340.794 813.978 338.756 814.019 336.77L812.019 336.728ZM812.109 342.985C812.206 344.983 812.345 346.975 812.526 348.959L814.517 348.777C814.339 346.821 814.202 344.858 814.107 342.889L812.109 342.985ZM814.12 360.824C814.822 364.77 815.69 368.67 816.715 372.512L818.647 371.996C817.636 368.209 816.781 364.364 816.089 360.474L814.12 360.824ZM820.289 383.938C821.647 387.709 823.16 391.407 824.822 395.019L826.639 394.183C825.001 390.623 823.509 386.978 822.171 383.26L820.289 383.938ZM830.295 405.669C832.283 409.153 834.416 412.533 836.688 415.796L838.329 414.653C836.092 411.44 833.991 408.11 832.032 404.678L830.295 405.669ZM843.978 425.301C846.566 428.367 849.289 431.296 852.139 434.074L853.535 432.642C850.733 429.91 848.054 427.028 845.506 424.011L843.978 425.301ZM861.134 441.996C864.274 444.488 867.536 446.808 870.91 448.94L871.979 447.249C868.666 445.156 865.463 442.878 862.377 440.43L861.134 441.996ZM881.393 454.773C884.986 456.515 888.684 458.053 892.477 459.372L893.134 457.483C889.416 456.19 885.79 454.682 882.265 452.973L881.393 454.773ZM904.028 462.633C907.901 463.48 911.857 464.104 915.885 464.49L916.076 462.499C912.128 462.121 908.251 461.509 904.455 460.679L904.028 462.633ZM927.88 464.927C929.864 464.883 931.863 464.782 933.876 464.623L933.718 462.629C931.743 462.786 929.782 462.885 927.836 462.928L927.88 464.927ZM933.876 464.623C936.094 464.447 938.219 464.161 940.258 463.773L939.884 461.808C937.919 462.182 935.866 462.458 933.718 462.629L933.876 464.623ZM952.461 459.835C956.432 457.955 959.998 455.604 963.25 452.881L961.967 451.347C958.833 453.971 955.409 456.227 951.605 458.027L952.461 459.835ZM972.154 443.702C974.775 440.455 977.189 436.954 979.479 433.293L977.783 432.233C975.524 435.846 973.156 439.276 970.597 442.446L972.154 443.702ZM985.832 422.322C987.832 418.663 989.799 414.92 991.791 411.188L990.026 410.246C988.027 413.993 986.07 417.715 984.077 421.363L985.832 422.322ZM997.862 400.164C999.961 396.53 1002.15 392.964 1004.51 389.533L1002.86 388.402C1000.47 391.887 998.246 395.499 996.13 399.164L997.862 400.164ZM1012.15 379.661C1014.89 376.564 1017.86 373.671 1021.11 371.048L1019.86 369.491C1016.51 372.192 1013.46 375.165 1010.65 378.335L1012.15 379.661ZM1031.47 364.231C1033.27 363.284 1035.15 362.409 1037.11 361.612L1036.36 359.759C1034.34 360.58 1032.4 361.483 1030.54 362.46L1031.47 364.231ZM1037.11 361.612C1039.01 360.843 1040.88 360.101 1042.74 359.385L1042.02 357.519C1040.15 358.239 1038.26 358.986 1036.36 359.759L1037.11 361.612ZM1054.11 355.283C1058.01 353.974 1061.85 352.79 1065.65 351.735L1065.11 349.808C1061.28 350.874 1057.41 352.068 1053.47 353.387L1054.11 355.283ZM1077.36 348.861C1081.35 348.016 1085.31 347.324 1089.24 346.787L1088.96 344.805C1084.99 345.349 1080.99 346.05 1076.95 346.904L1077.36 348.861ZM1101.22 345.632C1105.24 345.411 1109.25 345.359 1113.26 345.482L1113.32 343.483C1109.25 343.359 1105.19 343.411 1101.11 343.635L1101.22 345.632ZM1125.26 346.372C1129.2 346.835 1133.16 347.469 1137.15 348.277L1137.55 346.317C1133.51 345.498 1129.49 344.856 1125.5 344.386L1125.26 346.372ZM1148.86 351.119C1152.64 352.188 1156.46 353.41 1160.34 354.791L1161.01 352.906C1157.1 351.512 1153.23 350.276 1149.4 349.195L1148.86 351.119ZM1171.59 359.173C1173.42 359.947 1175.27 360.754 1177.13 361.596L1177.95 359.774C1176.08 358.925 1174.22 358.111 1172.37 357.33L1171.59 359.173ZM1177.13 361.596C1179.03 362.457 1180.84 363.392 1182.56 364.394L1183.57 362.665C1181.79 361.629 1179.92 360.663 1177.95 359.774L1177.13 361.596ZM1192.42 371.545C1195.5 374.283 1198.27 377.268 1200.82 380.424L1202.37 379.168C1199.77 375.94 1196.93 372.872 1193.75 370.05L1192.42 371.545ZM1207.95 390.429C1210.17 393.896 1212.26 397.452 1214.31 401.023L1216.04 400.027C1213.99 396.449 1211.88 392.859 1209.63 389.351L1207.95 390.429ZM1220.5 411.785C1222.64 415.402 1224.85 418.942 1227.22 422.304L1228.86 421.15C1226.52 417.849 1224.35 414.36 1222.22 410.767L1220.5 411.785ZM1235.2 431.992C1238.12 434.968 1241.34 437.656 1244.97 439.948L1246.04 438.256C1242.55 436.057 1239.45 433.472 1236.63 430.592L1235.2 431.992ZM1256.4 445.267C1258.35 445.893 1260.39 446.426 1262.54 446.858L1262.93 444.897C1260.86 444.479 1258.89 443.965 1257.02 443.363L1256.4 445.267ZM1262.54 446.858C1264.81 447.316 1267.03 447.655 1269.18 447.881L1269.39 445.892C1267.3 445.673 1265.15 445.344 1262.93 444.897L1262.54 446.858ZM1282.65 447.799C1287.33 447.209 1291.66 446.031 1295.67 444.372L1294.9 442.524C1291.06 444.116 1286.9 445.247 1282.4 445.814L1282.65 447.799ZM1307.32 437.629C1310.9 434.904 1314.13 431.768 1317.05 428.358L1315.53 427.058C1312.69 430.374 1309.56 433.409 1306.11 436.038L1307.32 437.629ZM1324.86 417.477C1327.2 413.629 1329.25 409.635 1331.05 405.632L1329.23 404.811C1327.46 408.75 1325.44 412.67 1323.15 416.439L1324.86 417.477ZM1335.92 393.203C1337.45 388.7 1338.69 384.368 1339.68 380.42L1337.74 379.932C1336.76 383.836 1335.54 388.115 1334.03 392.561L1335.92 393.203ZM1342.44 367.4C1342.79 365.343 1343.03 363.695 1343.18 362.558C1343.26 361.99 1343.31 361.55 1343.35 361.251C1343.36 361.101 1343.38 360.987 1343.39 360.909C1343.39 360.87 1343.39 360.841 1343.4 360.82C1343.4 360.81 1343.4 360.803 1343.4 360.797C1343.4 360.794 1343.4 360.792 1343.4 360.791C1343.4 360.79 1343.4 360.79 1343.4 360.789C1343.4 360.789 1343.4 360.789 1343.4 360.789C1343.4 360.789 1343.4 360.788 1343.4 360.788C1343.4 360.788 1343.4 360.788 1342.4 360.685C1341.41 360.582 1341.41 360.582 1341.41 360.582V360.582C1341.41 360.582 1341.41 360.582 1341.41 360.582C1341.41 360.582 1341.41 360.583 1341.41 360.583C1341.41 360.584 1341.41 360.586 1341.41 360.588C1341.41 360.592 1341.41 360.598 1341.41 360.607C1341.4 360.625 1341.4 360.652 1341.4 360.689C1341.39 360.762 1341.38 360.871 1341.36 361.016C1341.33 361.305 1341.27 361.735 1341.2 362.292C1341.05 363.407 1340.81 365.031 1340.46 367.062L1342.44 367.4Z" fill="#FFC000"/>
<defs>
<filter id="filter0_f_10301_129661" x="-353" y="-170" width="914" height="914" filterUnits="userSpaceOnUse" color-interpolation-filters="sRGB">
<feFlood flood-opacity="0" result="BackgroundImageFix"/>
<feBlend mode="normal" in="SourceGraphic" in2="BackgroundImageFix" result="shape"/>
<feGaussianBlur stdDeviation="142" result="effect1_foregroundBlur_10301_129661"/>
</filter>
<linearGradient id="paint0_linear_10301_129661" x1="721.755" y1="-113.215" x2="721.755" y2="1044.1" gradientUnits="userSpaceOnUse">
<stop stop-color="#FFEFD7"/>
<stop offset="0.526042" stop-color="#FFEDD2" stop-opacity="0"/>
<stop offset="1" stop-color="white"/>
</linearGradient>
<clipPath id="clip0_10301_129661">
<rect width="1440" height="660" fill="white"/>
</clipPath>
</defs>
</svg>
